  0
SECTION
  2
HEADER
  9
$ACADVER
  1
AC1015
  9
$HANDSEED
  5
     251
  0
ENDSEC
  0
SECTION
  2
TABLES
  0
TABLE
  2
VPORT
  5
1
100
AcDbSymbolTable
 70
     1
  0
VPORT
  5
2
100
AcDbSymbolTableRecord
100
AcDbViewportTableRecord
  2
*Active
 70
     0
 12
-500
 22
-1000
 40
3300
 41
1
  0
ENDTAB
  0
TABLE
  2
LTYPE
  5
3
100
AcDbSymbolTable
 70
     2
  0
LTYPE
  5
4
100
AcDbSymbolTableRecord
100
AcDbLinetypeTableRecord
  2
ByBlock
 70
     0
  0
LTYPE
  5
5
100
AcDbSymbolTableRecord
100
AcDbLinetypeTableRecord
  2
ByLayer
 70
     0
  0
ENDTAB
  0
TABLE
  2
LAYER
  5
6
100
AcDbSymbolTable
 70
     1
  0
LAYER
  5
7
100
AcDbSymbolTableRecord
100
AcDbLayerTableRecord
  2
0
 70
     0
390

  0
ENDTAB
  0
TABLE
  2
STYLE
  5
8
100
AcDbSymbolTable
 70
     1
  0
STYLE
  5
9
100
AcDbSymbolTableRecord
100
AcDbTextStyleTableRecord
  2
Standard
 70
     0
  3
txt
  0
ENDTAB
  0
TABLE
  2
VIEW
  5
A
100
AcDbSymbolTable
 70
     0
  0
ENDTAB
  0
TABLE
  2
UCS
  5
B
100
AcDbSymbolTable
 70
     0
  0
ENDTAB
  0
TABLE
  2
APPID
  5
C
100
AcDbSymbolTable
 70
     1
  0
APPID
  5
D
100
AcDbSymbolTableRecord
100
AcDbRegAppTableRecord
  2
ACAD
 70
     0
  0
ENDTAB
  0
TABLE
  2
DIMSTYLE
  5
E
100
AcDbSymbolTable
 70
     0
100
AcDbDimStyleTable
  0
ENDTAB
  0
TABLE
  2
BLOCK_RECORD
  5
F
100
AcDbSymbolTable
 70
58
  0
BLOCK_RECORD
  5
10
100
AcDbSymbolTableRecord
100
AcDbBlockTableRecord
  2
*Model_Space
  0
BLOCK_RECORD
  5
11
100
AcDbSymbolTableRecord
100
AcDbBlockTableRecord
  2
*Paper_Space
  0
BLOCK_RECORD
  5
12
100
AcDbSymbolTableRecord
100
AcDbBlockTableRecord
  2
ProyectoMuebleNiñas.EsquineroPlacard
  0
BLOCK_RECORD
  5
13
100
AcDbSymbolTableRecord
100
AcDbBlockTableRecord
  2
ProyectoMuebleNiñas.EsquineroPlacard.Suelo
  0
BLOCK_RECORD
  5
14
100
AcDbSymbolTableRecord
100
AcDbBlockTableRecord
  2
ProyectoMuebleNiñas.EsquineroPlacard.Techo
  0
BLOCK_RECORD
  5
15
100
AcDbSymbolTableRecord
100
AcDbBlockTableRecord
  2
ProyectoMuebleNiñas.EsquineroPlacard.Lateral Izquierdo
  0
BLOCK_RECORD
  5
16
100
AcDbSymbolTableRecord
100
AcDbBlockTableRecord
  2
ProyectoMuebleNiñas.EsquineroPlacard.Lateral Derecho
  0
BLOCK_RECORD
  5
17
100
AcDbSymbolTableRecord
100
AcDbBlockTableRecord
  2
ProyectoMuebleNiñas.EsquineroPlacard.Trasera Derecha
  0
BLOCK_RECORD
  5
18
100
AcDbSymbolTableRecord
100
AcDbBlockTableRecord
  2
ProyectoMuebleNiñas.EsquineroPlacard.Trasera Izquierda
  0
BLOCK_RECORD
  5
19
100
AcDbSymbolTableRecord
100
AcDbBlockTableRecord
  2
ProyectoMuebleNiñas.EsquineroPlacard.División Vertical [1]
  0
BLOCK_RECORD
  5
1A
100
AcDbSymbolTableRecord
100
AcDbBlockTableRecord
  2
ProyectoMuebleNiñas.EsquineroPlacard.Estante Fijo [1]
  0
BLOCK_RECORD
  5
1B
100
AcDbSymbolTableRecord
100
AcDbBlockTableRecord
  2
ProyectoMuebleNiñas.EsquineroPlacard.Estante Fijo [2]
  0
BLOCK_RECORD
  5
1C
100
AcDbSymbolTableRecord
100
AcDbBlockTableRecord
  2
ProyectoMuebleNiñas.EsquineroPlacard.División Vertical [2] (1)
  0
BLOCK_RECORD
  5
1D
100
AcDbSymbolTableRecord
100
AcDbBlockTableRecord
  2
ProyectoMuebleNiñas.EsquineroPlacard.División Vertical [3] (1)
  0
BLOCK_RECORD
  5
1E
100
AcDbSymbolTableRecord
100
AcDbBlockTableRecord
  2
ProyectoMuebleNiñas.EsquineroPlacard.División Vertical [4] (1)
  0
BLOCK_RECORD
  5
1F
100
AcDbSymbolTableRecord
100
AcDbBlockTableRecord
  2
ProyectoMuebleNiñas.EsquineroPlacard.División Vertical [5] (1)
  0
BLOCK_RECORD
  5
20
100
AcDbSymbolTableRecord
100
AcDbBlockTableRecord
  2
ProyectoMuebleNiñas.EsquineroPlacard.División Vertical [6] (1)
  0
BLOCK_RECORD
  5
21
100
AcDbSymbolTableRecord
100
AcDbBlockTableRecord
  2
ProyectoMuebleNiñas.EsquineroPlacard.División Vertical [7] (1)
  0
BLOCK_RECORD
  5
22
100
AcDbSymbolTableRecord
100
AcDbBlockTableRecord
  2
ProyectoMuebleNiñas.EsquineroPlacard.Estante Fijo [3]
  0
BLOCK_RECORD
  5
23
100
AcDbSymbolTableRecord
100
AcDbBlockTableRecord
  2
ProyectoMuebleNiñas.EsquineroPlacard.Estante Fijo [4]
  0
BLOCK_RECORD
  5
24
100
AcDbSymbolTableRecord
100
AcDbBlockTableRecord
  2
ProyectoMuebleNiñas.EsquineroPlacard.Estante Fijo [5]
  0
BLOCK_RECORD
  5
25
100
AcDbSymbolTableRecord
100
AcDbBlockTableRecord
  2
ProyectoMuebleNiñas.EsquineroPlacard.Estante Fijo [6]
  0
BLOCK_RECORD
  5
26
100
AcDbSymbolTableRecord
100
AcDbBlockTableRecord
  2
ProyectoMuebleNiñas.EsquineroPlacard.Puerta 1 (unica) [1]
  0
BLOCK_RECORD
  5
27
100
AcDbSymbolTableRecord
100
AcDbBlockTableRecord
  2
ProyectoMuebleNiñas.EsquineroPlacard.Puerta 1 (unica) [2]
  0
BLOCK_RECORD
  5
28
100
AcDbSymbolTableRecord
100
AcDbBlockTableRecord
  2
ProyectoMuebleNiñas.LatDerPlacard
  0
BLOCK_RECORD
  5
29
100
AcDbSymbolTableRecord
100
AcDbBlockTableRecord
  2
ProyectoMuebleNiñas.LatDerPlacard.Suelo
  0
BLOCK_RECORD
  5
2A
100
AcDbSymbolTableRecord
100
AcDbBlockTableRecord
  2
ProyectoMuebleNiñas.LatDerPlacard.Techo
  0
BLOCK_RECORD
  5
2B
100
AcDbSymbolTableRecord
100
AcDbBlockTableRecord
  2
ProyectoMuebleNiñas.LatDerPlacard.Lateral Derecho
  0
BLOCK_RECORD
  5
2C
100
AcDbSymbolTableRecord
100
AcDbBlockTableRecord
  2
ProyectoMuebleNiñas.LatDerPlacard.Trasera
  0
BLOCK_RECORD
  5
2D
100
AcDbSymbolTableRecord
100
AcDbBlockTableRecord
  2
ProyectoMuebleNiñas.LatDerPlacard.Lateral Izquierdo
  0
BLOCK_RECORD
  5
2E
100
AcDbSymbolTableRecord
100
AcDbBlockTableRecord
  2
ProyectoMuebleNiñas.LatDerPlacard.Estante Fijo [1]
  0
BLOCK_RECORD
  5
2F
100
AcDbSymbolTableRecord
100
AcDbBlockTableRecord
  2
ProyectoMuebleNiñas.LatDerPlacard.Estante Fijo [2]
  0
BLOCK_RECORD
  5
30
100
AcDbSymbolTableRecord
100
AcDbBlockTableRecord
  2
ProyectoMuebleNiñas.LatDerPlacard.Estante Fijo [3]
  0
BLOCK_RECORD
  5
31
100
AcDbSymbolTableRecord
100
AcDbBlockTableRecord
  2
ProyectoMuebleNiñas.LatDerPlacard.Cajón 1 [1] (1)
  0
BLOCK_RECORD
  5
32
100
AcDbSymbolTableRecord
100
AcDbBlockTableRecord
  2
ProyectoMuebleNiñas.LatDerPlacard.Contra-Frente Cajón 1 [1]
  0
BLOCK_RECORD
  5
33
100
AcDbSymbolTableRecord
100
AcDbBlockTableRecord
  2
ProyectoMuebleNiñas.LatDerPlacard.Lateral Izq Cajón 1 [1]
  0
BLOCK_RECORD
  5
34
100
AcDbSymbolTableRecord
100
AcDbBlockTableRecord
  2
ProyectoMuebleNiñas.LatDerPlacard.Lateral Der Cajón 1 [1]
  0
BLOCK_RECORD
  5
35
100
AcDbSymbolTableRecord
100
AcDbBlockTableRecord
  2
ProyectoMuebleNiñas.LatDerPlacard.Fondo Cajón 1 [1]
  0
BLOCK_RECORD
  5
36
100
AcDbSymbolTableRecord
100
AcDbBlockTableRecord
  2
ProyectoMuebleNiñas.LatDerPlacard.Trasera Cajón 1 [1]
  0
BLOCK_RECORD
  5
37
100
AcDbSymbolTableRecord
100
AcDbBlockTableRecord
  2
ProyectoMuebleNiñas.LatDerPlacard.Cajón 1 [2] (1)
  0
BLOCK_RECORD
  5
38
100
AcDbSymbolTableRecord
100
AcDbBlockTableRecord
  2
ProyectoMuebleNiñas.LatDerPlacard.Contra-Frente Cajón 1 [2]
  0
BLOCK_RECORD
  5
39
100
AcDbSymbolTableRecord
100
AcDbBlockTableRecord
  2
ProyectoMuebleNiñas.LatDerPlacard.Lateral Izq Cajón 1 [2]
  0
BLOCK_RECORD
  5
3A
100
AcDbSymbolTableRecord
100
AcDbBlockTableRecord
  2
ProyectoMuebleNiñas.LatDerPlacard.Lateral Der Cajón 1 [2]
  0
BLOCK_RECORD
  5
3B
100
AcDbSymbolTableRecord
100
AcDbBlockTableRecord
  2
ProyectoMuebleNiñas.LatDerPlacard.Fondo Cajón 1 [2]
  0
BLOCK_RECORD
  5
3C
100
AcDbSymbolTableRecord
100
AcDbBlockTableRecord
  2
ProyectoMuebleNiñas.LatDerPlacard.Trasera Cajón 1 [2]
  0
BLOCK_RECORD
  5
3D
100
AcDbSymbolTableRecord
100
AcDbBlockTableRecord
  2
ProyectoMuebleNiñas.LatDerPlacard.Puerta 1 (unica) [1]
  0
BLOCK_RECORD
  5
3E
100
AcDbSymbolTableRecord
100
AcDbBlockTableRecord
  2
ProyectoMuebleNiñas.LatIzqPlacard
  0
BLOCK_RECORD
  5
3F
100
AcDbSymbolTableRecord
100
AcDbBlockTableRecord
  2
ProyectoMuebleNiñas.LatIzqPlacard.Suelo
  0
BLOCK_RECORD
  5
40
100
AcDbSymbolTableRecord
100
AcDbBlockTableRecord
  2
ProyectoMuebleNiñas.LatIzqPlacard.Techo
  0
BLOCK_RECORD
  5
41
100
AcDbSymbolTableRecord
100
AcDbBlockTableRecord
  2
ProyectoMuebleNiñas.LatIzqPlacard.Lateral Derecho
  0
BLOCK_RECORD
  5
42
100
AcDbSymbolTableRecord
100
AcDbBlockTableRecord
  2
ProyectoMuebleNiñas.LatIzqPlacard.Trasera
  0
BLOCK_RECORD
  5
43
100
AcDbSymbolTableRecord
100
AcDbBlockTableRecord
  2
ProyectoMuebleNiñas.LatIzqPlacard.Lateral Izquierdo
  0
BLOCK_RECORD
  5
44
100
AcDbSymbolTableRecord
100
AcDbBlockTableRecord
  2
ProyectoMuebleNiñas.LatIzqPlacard.Estante Fijo [1]
  0
BLOCK_RECORD
  5
45
100
AcDbSymbolTableRecord
100
AcDbBlockTableRecord
  2
ProyectoMuebleNiñas.LatIzqPlacard.Estante Fijo [2]
  0
BLOCK_RECORD
  5
46
100
AcDbSymbolTableRecord
100
AcDbBlockTableRecord
  2
ProyectoMuebleNiñas.PuertasPlacard[1]
  0
BLOCK_RECORD
  5
47
100
AcDbSymbolTableRecord
100
AcDbBlockTableRecord
  2
ProyectoMuebleNiñas.PuertasPlacard[1].Puerta 1 (corredera) [1] (1)
  0
BLOCK_RECORD
  5
48
100
AcDbSymbolTableRecord
100
AcDbBlockTableRecord
  2
ProyectoMuebleNiñas.PuertasPlacard[1].Puerta 1 (corredera) [1] (2)
  0
BLOCK_RECORD
  5
49
100
AcDbSymbolTableRecord
100
AcDbBlockTableRecord
  2
ProyectoMuebleNiñas.Suelo 1
  0
ENDTAB
  0
ENDSEC
  0
SECTION
  2
BLOCKS
  0
BLOCK
  5
4A
100
AcDbEntity
100
AcDbBlockBegin
  2
*Model_Space
  0
ENDBLK
  5
4B
100
AcDbEntity
100
AcDbBlockEnd
  0
BLOCK
  5
4C
100
AcDbEntity
100
AcDbBlockBegin
  2
*Paper_Space
  0
ENDBLK
  5
4D
100
AcDbEntity
100
AcDbBlockEnd
  0
BLOCK
  5
4E
100
AcDbEntity
  8
0
100
AcDbBlockBegin
  2
ProyectoMuebleNiñas.EsquineroPlacard
 70
     0
 10
0
 20
0
 30
0
  0
INSERT
  5
4F
100
AcDbEntity
  8
Melamina 18 Nebrasca
100
AcDbBlockReference
  2
ProyectoMuebleNiñas.EsquineroPlacard.Suelo
 10
625
 20
0
 30
0
210
0
220
0
230
1
  0
INSERT
  5
50
100
AcDbEntity
  8
Melamina 18 Nebrasca
100
AcDbBlockReference
  2
ProyectoMuebleNiñas.EsquineroPlacard.Techo
 10
625
 20
350
 30
2300
210
0
220
0
230
1
  0
INSERT
  5
51
100
AcDbEntity
  8
Melamina 15 Blanca
100
AcDbBlockReference
  2
ProyectoMuebleNiñas.EsquineroPlacard.Lateral Izquierdo
 10
0
 20
900
 30
18
210
0
220
0
230
1
  0
INSERT
  5
52
100
AcDbEntity
  8
Melamina 15 Blanca
100
AcDbBlockReference
  2
ProyectoMuebleNiñas.EsquineroPlacard.Lateral Derecho
 10
1175
 20
0
 30
2282
210
0
220
0
230
1
  0
INSERT
  5
53
100
AcDbEntity
  8
Melamina 15 Blanca
100
AcDbBlockReference
  2
ProyectoMuebleNiñas.EsquineroPlacard.Trasera Derecha
 10
1175
 20
900
 30
2282
210
0
220
0
230
1
  0
INSERT
  5
54
100
AcDbEntity
  8
Melamina 15 Blanca
100
AcDbBlockReference
  2
ProyectoMuebleNiñas.EsquineroPlacard.Trasera Izquierda
 10
1175
 20
900
 30
18
210
0
220
0
230
1
  0
INSERT
  5
55
100
AcDbEntity
  8
Melamina 18 Blanca
100
AcDbBlockReference
  2
ProyectoMuebleNiñas.EsquineroPlacard.División Vertical [1]
 10
390
 20
885
 30
18
210
0
220
0
230
1
  0
INSERT
  5
56
100
AcDbEntity
  8
Melamina 18 Blanca
100
AcDbBlockReference
  2
ProyectoMuebleNiñas.EsquineroPlacard.Estante Fijo [1]
 10
625
 20
15
 30
918
210
0
220
0
230
1
  0
INSERT
  5
57
100
AcDbEntity
  8
Melamina 18 Blanca
100
AcDbBlockReference
  2
ProyectoMuebleNiñas.EsquineroPlacard.Estante Fijo [2]
 10
625
 20
15
 30
1964
210
0
220
0
230
1
  0
INSERT
  5
58
100
AcDbEntity
  8
Melamina 18 Nebrasca
100
AcDbBlockReference
  2
ProyectoMuebleNiñas.EsquineroPlacard.División Vertical [2] (1)
 10
705
 20
368
 30
918
210
0
220
0
230
1
  0
INSERT
  5
59
100
AcDbEntity
  8
Melamina 18 Nebrasca
100
AcDbBlockReference
  2
ProyectoMuebleNiñas.EsquineroPlacard.División Vertical [3] (1)
 10
705
 20
368
 30
1964
210
0
220
0
230
1
  0
INSERT
  5
5A
100
AcDbEntity
  8
Melamina 18 Nebrasca
100
AcDbBlockReference
  2
ProyectoMuebleNiñas.EsquineroPlacard.División Vertical [4] (1)
 10
705
 20
368
 30
2282
210
0
220
0
230
1
  0
INSERT
  5
5B
100
AcDbEntity
  8
Melamina 18 Nebrasca
100
AcDbBlockReference
  2
ProyectoMuebleNiñas.EsquineroPlacard.División Vertical [5] (1)
 10
625
 20
448
 30
918
210
0
220
0
230
1
  0
INSERT
  5
5C
100
AcDbEntity
  8
Melamina 18 Nebrasca
100
AcDbBlockReference
  2
ProyectoMuebleNiñas.EsquineroPlacard.División Vertical [6] (1)
 10
625
 20
448
 30
1964
210
0
220
0
230
1
  0
INSERT
  5
5D
100
AcDbEntity
  8
Melamina 18 Nebrasca
100
AcDbBlockReference
  2
ProyectoMuebleNiñas.EsquineroPlacard.División Vertical [7] (1)
 10
625
 20
448
 30
2282
210
0
220
0
230
1
  0
INSERT
  5
5E
100
AcDbEntity
  8
Melamina 15 Blanca
100
AcDbBlockReference
  2
ProyectoMuebleNiñas.EsquineroPlacard.Estante Fijo [3]
 10
390
 20
885
 30
918
210
0
220
0
230
1
  0
INSERT
  5
5F
100
AcDbEntity
  8
Melamina 15 Blanca
100
AcDbBlockReference
  2
ProyectoMuebleNiñas.EsquineroPlacard.Estante Fijo [4]
 10
390
 20
885
 30
1372.66666667
210
0
220
0
230
1
  0
INSERT
  5
60
100
AcDbEntity
  8
Melamina 15 Blanca
100
AcDbBlockReference
  2
ProyectoMuebleNiñas.EsquineroPlacard.Estante Fijo [5]
 10
390
 20
885
 30
1827.33333333
210
0
220
0
230
1
  0
INSERT
  5
61
100
AcDbEntity
  8
Melamina 15 Blanca
100
AcDbBlockReference
  2
ProyectoMuebleNiñas.EsquineroPlacard.Estante Fijo [6]
 10
390
 20
885
 30
460.5
210
0
220
0
230
1
  0
INSERT
  5
62
100
AcDbEntity
  8
Melamina 18 Nebrasca
100
AcDbBlockReference
  2
ProyectoMuebleNiñas.EsquineroPlacard.Puerta 1 (unica) [1]
 10
607
 20
6
 30
6
210
0
220
0
230
1
  0
INSERT
  5
63
100
AcDbEntity
  8
Melamina 18 Nebrasca
100
AcDbBlockReference
  2
ProyectoMuebleNiñas.EsquineroPlacard.Puerta 1 (unica) [2]
 10
607
 20
6
 30
930
210
0
220
0
230
1
  0
ENDBLK
  5
64
100
AcDbEntity
  8
0
100
AcDbBlockEnd
  0
BLOCK
  5
65
100
AcDbEntity
  8
Melamina 18 Nebrasca
100
AcDbBlockBegin
  2
ProyectoMuebleNiñas.EsquineroPlacard.Suelo
 70
     0
 10
625
 20
0
 30
0
  0
3DFACE
  5
66
100
AcDbEntity
  8
Melamina 18 Nebrasca
 62
0
100
AcDbFace
 10
625
 20
0
 30
0
 11
1175
 21
900
 31
0
 12
1175
 22
0
 32
0
 13
625
 23
0
 33
0
 70
9
  0
3DFACE
  5
67
100
AcDbEntity
  8
Melamina 18 Nebrasca
 62
0
100
AcDbFace
 10
625
 20
350
 30
0
 11
1175
 21
900
 31
0
 12
625
 22
0
 32
0
 13
625
 23
350
 33
0
 70
11
  0
3DFACE
  5
68
100
AcDbEntity
  8
Melamina 18 Nebrasca
 62
0
100
AcDbFace
 10
0
 20
350
 30
0
 11
1175
 21
900
 31
0
 12
625
 22
350
 32
0
 13
0
 23
350
 33
0
 70
11
  0
3DFACE
  5
69
100
AcDbEntity
  8
Melamina 18 Nebrasca
 62
0
100
AcDbFace
 10
0
 20
900
 30
0
 11
1175
 21
900
 31
0
 12
0
 22
350
 32
0
 13
0
 23
900
 33
0
 70
10
  0
3DFACE
  5
6A
100
AcDbEntity
  8
Melamina 18 Nebrasca
 62
0
100
AcDbFace
 10
625
 20
350
 30
18
 11
0
 21
900
 31
18
 12
0
 22
350
 32
18
 13
625
 23
350
 33
18
 70
9
  0
3DFACE
  5
6B
100
AcDbEntity
  8
Melamina 18 Nebrasca
 62
0
100
AcDbFace
 10
1175
 20
0
 30
18
 11
0
 21
900
 31
18
 12
625
 22
350
 32
18
 13
1175
 23
0
 33
18
 70
15
  0
3DFACE
  5
6C
100
AcDbEntity
  8
Melamina 18 Nebrasca
 62
0
100
AcDbFace
 10
1175
 20
900
 30
18
 11
0
 21
900
 31
18
 12
1175
 22
0
 32
18
 13
1175
 23
900
 33
18
 70
10
  0
3DFACE
  5
6D
100
AcDbEntity
  8
Melamina 18 Nebrasca
 62
0
100
AcDbFace
 10
1175
 20
0
 30
18
 11
625
 21
350
 31
18
 12
625
 22
0
 32
18
 13
1175
 23
0
 33
18
 70
9
  0
3DFACE
  5
6E
100
AcDbEntity
  8
Melamina 18 Nebrasca
 62
0
100
AcDbFace
 10
1175
 20
900
 30
18
 11
1175
 21
0
 31
18
 12
1175
 22
0
 32
0
 13
1175
 23
900
 33
0
 70
0
  0
3DFACE
  5
6F
100
AcDbEntity
  8
Melamina 18 Nebrasca
 62
0
100
AcDbFace
 10
1175
 20
0
 30
18
 11
625
 21
0
 31
18
 12
625
 22
0
 32
0
 13
1175
 23
0
 33
0
 70
0
  0
3DFACE
  5
70
100
AcDbEntity
  8
Melamina 18 Nebrasca
 62
0
100
AcDbFace
 10
625
 20
0
 30
18
 11
625
 21
350
 31
18
 12
625
 22
350
 32
0
 13
625
 23
0
 33
0
 70
0
  0
3DFACE
  5
71
100
AcDbEntity
  8
Melamina 18 Nebrasca
 62
0
100
AcDbFace
 10
625
 20
350
 30
18
 11
0
 21
350
 31
18
 12
0
 22
350
 32
0
 13
625
 23
350
 33
0
 70
0
  0
3DFACE
  5
72
100
AcDbEntity
  8
Melamina 18 Nebrasca
 62
0
100
AcDbFace
 10
0
 20
350
 30
18
 11
0
 21
900
 31
18
 12
0
 22
900
 32
0
 13
0
 23
350
 33
0
 70
0
  0
3DFACE
  5
73
100
AcDbEntity
  8
Melamina 18 Nebrasca
 62
0
100
AcDbFace
 10
0
 20
900
 30
18
 11
1175
 21
900
 31
18
 12
1175
 22
900
 32
0
 13
0
 23
900
 33
0
 70
0
  0
ENDBLK
  5
74
100
AcDbEntity
  8
Melamina 18 Nebrasca
100
AcDbBlockEnd
  0
BLOCK
  5
75
100
AcDbEntity
  8
Melamina 18 Nebrasca
100
AcDbBlockBegin
  2
ProyectoMuebleNiñas.EsquineroPlacard.Techo
 70
     0
 10
625
 20
350
 30
2300
  0
3DFACE
  5
76
100
AcDbEntity
  8
Melamina 18 Nebrasca
 62
0
100
AcDbFace
 10
625
 20
350
 30
2300
 11
0
 21
900
 31
2300
 12
0
 22
350
 32
2300
 13
625
 23
350
 33
2300
 70
9
  0
3DFACE
  5
77
100
AcDbEntity
  8
Melamina 18 Nebrasca
 62
0
100
AcDbFace
 10
1175
 20
0
 30
2300
 11
0
 21
900
 31
2300
 12
625
 22
350
 32
2300
 13
1175
 23
0
 33
2300
 70
15
  0
3DFACE
  5
78
100
AcDbEntity
  8
Melamina 18 Nebrasca
 62
0
100
AcDbFace
 10
1175
 20
900
 30
2300
 11
0
 21
900
 31
2300
 12
1175
 22
0
 32
2300
 13
1175
 23
900
 33
2300
 70
10
  0
3DFACE
  5
79
100
AcDbEntity
  8
Melamina 18 Nebrasca
 62
0
100
AcDbFace
 10
1175
 20
0
 30
2300
 11
625
 21
350
 31
2300
 12
625
 22
0
 32
2300
 13
1175
 23
0
 33
2300
 70
9
  0
3DFACE
  5
7A
100
AcDbEntity
  8
Melamina 18 Nebrasca
 62
0
100
AcDbFace
 10
625
 20
0
 30
2282
 11
1175
 21
900
 31
2282
 12
1175
 22
0
 32
2282
 13
625
 23
0
 33
2282
 70
9
  0
3DFACE
  5
7B
100
AcDbEntity
  8
Melamina 18 Nebrasca
 62
0
100
AcDbFace
 10
625
 20
350
 30
2282
 11
1175
 21
900
 31
2282
 12
625
 22
0
 32
2282
 13
625
 23
350
 33
2282
 70
11
  0
3DFACE
  5
7C
100
AcDbEntity
  8
Melamina 18 Nebrasca
 62
0
100
AcDbFace
 10
0
 20
350
 30
2282
 11
1175
 21
900
 31
2282
 12
625
 22
350
 32
2282
 13
0
 23
350
 33
2282
 70
11
  0
3DFACE
  5
7D
100
AcDbEntity
  8
Melamina 18 Nebrasca
 62
0
100
AcDbFace
 10
0
 20
900
 30
2282
 11
1175
 21
900
 31
2282
 12
0
 22
350
 32
2282
 13
0
 23
900
 33
2282
 70
10
  0
3DFACE
  5
7E
100
AcDbEntity
  8
Melamina 18 Nebrasca
 62
0
100
AcDbFace
 10
0
 20
900
 30
2282
 11
0
 21
350
 31
2282
 12
0
 22
350
 32
2300
 13
0
 23
900
 33
2300
 70
0
  0
3DFACE
  5
7F
100
AcDbEntity
  8
Melamina 18 Nebrasca
 62
0
100
AcDbFace
 10
0
 20
350
 30
2282
 11
625
 21
350
 31
2282
 12
625
 22
350
 32
2300
 13
0
 23
350
 33
2300
 70
0
  0
3DFACE
  5
80
100
AcDbEntity
  8
Melamina 18 Nebrasca
 62
0
100
AcDbFace
 10
625
 20
350
 30
2282
 11
625
 21
0
 31
2282
 12
625
 22
0
 32
2300
 13
625
 23
350
 33
2300
 70
0
  0
3DFACE
  5
81
100
AcDbEntity
  8
Melamina 18 Nebrasca
 62
0
100
AcDbFace
 10
625
 20
0
 30
2282
 11
1175
 21
0
 31
2282
 12
1175
 22
0
 32
2300
 13
625
 23
0
 33
2300
 70
0
  0
3DFACE
  5
82
100
AcDbEntity
  8
Melamina 18 Nebrasca
 62
0
100
AcDbFace
 10
1175
 20
0
 30
2282
 11
1175
 21
900
 31
2282
 12
1175
 22
900
 32
2300
 13
1175
 23
0
 33
2300
 70
0
  0
3DFACE
  5
83
100
AcDbEntity
  8
Melamina 18 Nebrasca
 62
0
100
AcDbFace
 10
1175
 20
900
 30
2282
 11
0
 21
900
 31
2282
 12
0
 22
900
 32
2300
 13
1175
 23
900
 33
2300
 70
0
  0
ENDBLK
  5
84
100
AcDbEntity
  8
Melamina 18 Nebrasca
100
AcDbBlockEnd
  0
BLOCK
  5
85
100
AcDbEntity
  8
Melamina 15 Blanca
100
AcDbBlockBegin
  2
ProyectoMuebleNiñas.EsquineroPlacard.Lateral Izquierdo
 70
     0
 10
0
 20
900
 30
18
  0
3DFACE
  5
86
100
AcDbEntity
  8
Melamina 15 Blanca
 62
0
100
AcDbFace
 10
0
 20
900
 30
18
 11
0
 21
430
 31
18
 12
0
 22
430
 32
2282
 13
0
 23
900
 33
2282
 70
0
  0
3DFACE
  5
87
100
AcDbEntity
  8
Melamina 15 Blanca
 62
0
100
AcDbFace
 10
15
 20
900
 30
18
 11
15
 21
430
 31
18
 12
15
 22
430
 32
2282
 13
15
 23
900
 33
2282
 70
0
  0
3DFACE
  5
88
100
AcDbEntity
  8
Melamina 15 Blanca
 62
0
100
AcDbFace
 10
15
 20
900
 30
18
 11
15
 21
430
 31
18
 12
0
 22
430
 32
18
 13
0
 23
900
 33
18
 70
0
  0
3DFACE
  5
89
100
AcDbEntity
  8
Melamina 15 Blanca
 62
0
100
AcDbFace
 10
15
 20
430
 30
18
 11
15
 21
430
 31
2282
 12
0
 22
430
 32
2282
 13
0
 23
430
 33
18
 70
0
  0
3DFACE
  5
8A
100
AcDbEntity
  8
Melamina 15 Blanca
 62
0
100
AcDbFace
 10
15
 20
430
 30
2282
 11
15
 21
900
 31
2282
 12
0
 22
900
 32
2282
 13
0
 23
430
 33
2282
 70
0
  0
3DFACE
  5
8B
100
AcDbEntity
  8
Melamina 15 Blanca
 62
0
100
AcDbFace
 10
15
 20
900
 30
2282
 11
15
 21
900
 31
18
 12
0
 22
900
 32
18
 13
0
 23
900
 33
2282
 70
0
  0
ENDBLK
  5
8C
100
AcDbEntity
  8
Melamina 15 Blanca
100
AcDbBlockEnd
  0
BLOCK
  5
8D
100
AcDbEntity
  8
Melamina 15 Blanca
100
AcDbBlockBegin
  2
ProyectoMuebleNiñas.EsquineroPlacard.Lateral Derecho
 70
     0
 10
1175
 20
0
 30
2282
  0
3DFACE
  5
8E
100
AcDbEntity
  8
Melamina 15 Blanca
 62
0
100
AcDbFace
 10
1175
 20
0
 30
2282
 11
625
 21
0
 31
2282
 12
625
 22
0
 32
18
 13
1175
 23
0
 33
18
 70
0
  0
3DFACE
  5
8F
100
AcDbEntity
  8
Melamina 15 Blanca
 62
0
100
AcDbFace
 10
1175
 20
15
 30
2282
 11
625
 21
15
 31
2282
 12
625
 22
15
 32
18
 13
1175
 23
15
 33
18
 70
0
  0
3DFACE
  5
90
100
AcDbEntity
  8
Melamina 15 Blanca
 62
0
100
AcDbFace
 10
1175
 20
15
 30
2282
 11
625
 21
15
 31
2282
 12
625
 22
0
 32
2282
 13
1175
 23
0
 33
2282
 70
0
  0
3DFACE
  5
91
100
AcDbEntity
  8
Melamina 15 Blanca
 62
0
100
AcDbFace
 10
625
 20
15
 30
2282
 11
625
 21
15
 31
18
 12
625
 22
0
 32
18
 13
625
 23
0
 33
2282
 70
0
  0
3DFACE
  5
92
100
AcDbEntity
  8
Melamina 15 Blanca
 62
0
100
AcDbFace
 10
625
 20
15
 30
18
 11
1175
 21
15
 31
18
 12
1175
 22
0
 32
18
 13
625
 23
0
 33
18
 70
0
  0
3DFACE
  5
93
100
AcDbEntity
  8
Melamina 15 Blanca
 62
0
100
AcDbFace
 10
1175
 20
15
 30
18
 11
1175
 21
15
 31
2282
 12
1175
 22
0
 32
2282
 13
1175
 23
0
 33
18
 70
0
  0
ENDBLK
  5
94
100
AcDbEntity
  8
Melamina 15 Blanca
100
AcDbBlockEnd
  0
BLOCK
  5
95
100
AcDbEntity
  8
Melamina 15 Blanca
100
AcDbBlockBegin
  2
ProyectoMuebleNiñas.EsquineroPlacard.Trasera Derecha
 70
     0
 10
1175
 20
900
 30
2282
  0
3DFACE
  5
96
100
AcDbEntity
  8
Melamina 15 Blanca
 62
0
100
AcDbFace
 10
1175
 20
900
 30
2282
 11
1175
 21
15
 31
2282
 12
1175
 22
15
 32
18
 13
1175
 23
900
 33
18
 70
0
  0
3DFACE
  5
97
100
AcDbEntity
  8
Melamina 15 Blanca
 62
0
100
AcDbFace
 10
1160
 20
885
 30
2282
 11
1160
 21
15
 31
2282
 12
1160
 22
15
 32
18
 13
1160
 23
885
 33
18
 70
0
  0
3DFACE
  5
98
100
AcDbEntity
  8
Melamina 15 Blanca
 62
0
100
AcDbFace
 10
1160
 20
885
 30
2282
 11
1160
 21
15
 31
2282
 12
1175
 22
15
 32
2282
 13
1175
 23
900
 33
2282
 70
0
  0
3DFACE
  5
99
100
AcDbEntity
  8
Melamina 15 Blanca
 62
0
100
AcDbFace
 10
1160
 20
15
 30
2282
 11
1160
 21
15
 31
18
 12
1175
 22
15
 32
18
 13
1175
 23
15
 33
2282
 70
0
  0
3DFACE
  5
9A
100
AcDbEntity
  8
Melamina 15 Blanca
 62
0
100
AcDbFace
 10
1160
 20
15
 30
18
 11
1160
 21
885
 31
18
 12
1175
 22
900
 32
18
 13
1175
 23
15
 33
18
 70
0
  0
3DFACE
  5
9B
100
AcDbEntity
  8
Melamina 15 Blanca
 62
0
100
AcDbFace
 10
1160
 20
885
 30
18
 11
1175
 21
900
 31
18
 12
1175
 22
900
 32
2282
 13
1160
 23
885
 33
2282
 70
0
  0
ENDBLK
  5
9C
100
AcDbEntity
  8
Melamina 15 Blanca
100
AcDbBlockEnd
  0
BLOCK
  5
9D
100
AcDbEntity
  8
Melamina 15 Blanca
100
AcDbBlockBegin
  2
ProyectoMuebleNiñas.EsquineroPlacard.Trasera Izquierda
 70
     0
 10
1175
 20
900
 30
18
  0
3DFACE
  5
9E
100
AcDbEntity
  8
Melamina 15 Blanca
 62
0
100
AcDbFace
 10
1175
 20
900
 30
18
 11
15
 21
900
 31
18
 12
15
 22
900
 32
2282
 13
1175
 23
900
 33
2282
 70
0
  0
3DFACE
  5
9F
100
AcDbEntity
  8
Melamina 15 Blanca
 62
0
100
AcDbFace
 10
1160
 20
885
 30
18
 11
15
 21
885
 31
18
 12
15
 22
885
 32
2282
 13
1160
 23
885
 33
2282
 70
0
  0
3DFACE
  5
A0
100
AcDbEntity
  8
Melamina 15 Blanca
 62
0
100
AcDbFace
 10
1160
 20
885
 30
18
 11
15
 21
885
 31
18
 12
15
 22
900
 32
18
 13
1175
 23
900
 33
18
 70
0
  0
3DFACE
  5
A1
100
AcDbEntity
  8
Melamina 15 Blanca
 62
0
100
AcDbFace
 10
15
 20
885
 30
18
 11
15
 21
885
 31
2282
 12
15
 22
900
 32
2282
 13
15
 23
900
 33
18
 70
0
  0
3DFACE
  5
A2
100
AcDbEntity
  8
Melamina 15 Blanca
 62
0
100
AcDbFace
 10
15
 20
885
 30
2282
 11
1160
 21
885
 31
2282
 12
1175
 22
900
 32
2282
 13
15
 23
900
 33
2282
 70
0
  0
3DFACE
  5
A3
100
AcDbEntity
  8
Melamina 15 Blanca
 62
0
100
AcDbFace
 10
1160
 20
885
 30
2282
 11
1175
 21
900
 31
2282
 12
1175
 22
900
 32
18
 13
1160
 23
885
 33
18
 70
0
  0
ENDBLK
  5
A4
100
AcDbEntity
  8
Melamina 15 Blanca
100
AcDbBlockEnd
  0
BLOCK
  5
A5
100
AcDbEntity
  8
Melamina 18 Blanca
100
AcDbBlockBegin
  2
ProyectoMuebleNiñas.EsquineroPlacard.División Vertical [1]
 70
     0
 10
390
 20
885
 30
18
  0
3DFACE
  5
A6
100
AcDbEntity
  8
Melamina 18 Blanca
 62
0
100
AcDbFace
 10
390
 20
885
 30
18
 11
390
 21
885
 31
2282
 12
390
 22
430
 32
2282
 13
390
 23
430
 33
18
 70
0
  0
3DFACE
  5
A7
100
AcDbEntity
  8
Melamina 18 Blanca
 62
0
100
AcDbFace
 10
408
 20
885
 30
18
 11
408
 21
885
 31
2282
 12
408
 22
430
 32
2282
 13
408
 23
430
 33
18
 70
0
  0
3DFACE
  5
A8
100
AcDbEntity
  8
Melamina 18 Blanca
 62
0
100
AcDbFace
 10
390
 20
885
 30
18
 11
408
 21
885
 31
18
 12
408
 22
885
 32
2282
 13
390
 23
885
 33
2282
 70
0
  0
3DFACE
  5
A9
100
AcDbEntity
  8
Melamina 18 Blanca
 62
0
100
AcDbFace
 10
390
 20
885
 30
2282
 11
408
 21
885
 31
2282
 12
408
 22
430
 32
2282
 13
390
 23
430
 33
2282
 70
0
  0
3DFACE
  5
AA
100
AcDbEntity
  8
Melamina 18 Blanca
 62
0
100
AcDbFace
 10
390
 20
430
 30
2282
 11
408
 21
430
 31
2282
 12
408
 22
430
 32
18
 13
390
 23
430
 33
18
 70
0
  0
3DFACE
  5
AB
100
AcDbEntity
  8
Melamina 18 Blanca
 62
0
100
AcDbFace
 10
390
 20
430
 30
18
 11
408
 21
430
 31
18
 12
408
 22
885
 32
18
 13
390
 23
885
 33
18
 70
0
  0
ENDBLK
  5
AC
100
AcDbEntity
  8
Melamina 18 Blanca
100
AcDbBlockEnd
  0
BLOCK
  5
AD
100
AcDbEntity
  8
Melamina 18 Blanca
100
AcDbBlockBegin
  2
ProyectoMuebleNiñas.EsquineroPlacard.Estante Fijo [1]
 70
     0
 10
625
 20
15
 30
918
  0
3DFACE
  5
AE
100
AcDbEntity
  8
Melamina 18 Blanca
 62
0
100
AcDbFace
 10
625
 20
15
 30
918
 11
1160
 21
885
 31
918
 12
1160
 22
15
 32
918
 13
625
 23
15
 33
918
 70
9
  0
3DFACE
  5
AF
100
AcDbEntity
  8
Melamina 18 Blanca
 62
0
100
AcDbFace
 10
625
 20
430
 30
918
 11
1160
 21
885
 31
918
 12
625
 22
15
 32
918
 13
625
 23
430
 33
918
 70
11
  0
3DFACE
  5
B0
100
AcDbEntity
  8
Melamina 18 Blanca
 62
0
100
AcDbFace
 10
408
 20
430
 30
918
 11
1160
 21
885
 31
918
 12
625
 22
430
 32
918
 13
408
 23
430
 33
918
 70
11
  0
3DFACE
  5
B1
100
AcDbEntity
  8
Melamina 18 Blanca
 62
0
100
AcDbFace
 10
408
 20
885
 30
918
 11
1160
 21
885
 31
918
 12
408
 22
430
 32
918
 13
408
 23
885
 33
918
 70
10
  0
3DFACE
  5
B2
100
AcDbEntity
  8
Melamina 18 Blanca
 62
0
100
AcDbFace
 10
625
 20
430
 30
936
 11
408
 21
885
 31
936
 12
408
 22
430
 32
936
 13
625
 23
430
 33
936
 70
9
  0
3DFACE
  5
B3
100
AcDbEntity
  8
Melamina 18 Blanca
 62
0
100
AcDbFace
 10
1160
 20
15
 30
936
 11
408
 21
885
 31
936
 12
625
 22
430
 32
936
 13
1160
 23
15
 33
936
 70
15
  0
3DFACE
  5
B4
100
AcDbEntity
  8
Melamina 18 Blanca
 62
0
100
AcDbFace
 10
1160
 20
885
 30
936
 11
408
 21
885
 31
936
 12
1160
 22
15
 32
936
 13
1160
 23
885
 33
936
 70
10
  0
3DFACE
  5
B5
100
AcDbEntity
  8
Melamina 18 Blanca
 62
0
100
AcDbFace
 10
1160
 20
15
 30
936
 11
625
 21
430
 31
936
 12
625
 22
15
 32
936
 13
1160
 23
15
 33
936
 70
9
  0
3DFACE
  5
B6
100
AcDbEntity
  8
Melamina 18 Blanca
 62
0
100
AcDbFace
 10
1160
 20
885
 30
918
 11
1160
 21
885
 31
936
 12
408
 22
885
 32
936
 13
408
 23
885
 33
918
 70
0
  0
3DFACE
  5
B7
100
AcDbEntity
  8
Melamina 18 Blanca
 62
0
100
AcDbFace
 10
408
 20
885
 30
918
 11
408
 21
885
 31
936
 12
408
 22
430
 32
936
 13
408
 23
430
 33
918
 70
0
  0
3DFACE
  5
B8
100
AcDbEntity
  8
Melamina 18 Blanca
 62
0
100
AcDbFace
 10
408
 20
430
 30
918
 11
408
 21
430
 31
936
 12
625
 22
430
 32
936
 13
625
 23
430
 33
918
 70
0
  0
3DFACE
  5
B9
100
AcDbEntity
  8
Melamina 18 Blanca
 62
0
100
AcDbFace
 10
625
 20
430
 30
918
 11
625
 21
430
 31
936
 12
625
 22
15
 32
936
 13
625
 23
15
 33
918
 70
0
  0
3DFACE
  5
BA
100
AcDbEntity
  8
Melamina 18 Blanca
 62
0
100
AcDbFace
 10
625
 20
15
 30
918
 11
625
 21
15
 31
936
 12
1160
 22
15
 32
936
 13
1160
 23
15
 33
918
 70
0
  0
3DFACE
  5
BB
100
AcDbEntity
  8
Melamina 18 Blanca
 62
0
100
AcDbFace
 10
1160
 20
15
 30
918
 11
1160
 21
15
 31
936
 12
1160
 22
885
 32
936
 13
1160
 23
885
 33
918
 70
0
  0
ENDBLK
  5
BC
100
AcDbEntity
  8
Melamina 18 Blanca
100
AcDbBlockEnd
  0
BLOCK
  5
BD
100
AcDbEntity
  8
Melamina 18 Blanca
100
AcDbBlockBegin
  2
ProyectoMuebleNiñas.EsquineroPlacard.Estante Fijo [2]
 70
     0
 10
625
 20
15
 30
1964
  0
3DFACE
  5
BE
100
AcDbEntity
  8
Melamina 18 Blanca
 62
0
100
AcDbFace
 10
625
 20
15
 30
1964
 11
1160
 21
885
 31
1964
 12
1160
 22
15
 32
1964
 13
625
 23
15
 33
1964
 70
9
  0
3DFACE
  5
BF
100
AcDbEntity
  8
Melamina 18 Blanca
 62
0
100
AcDbFace
 10
625
 20
430
 30
1964
 11
1160
 21
885
 31
1964
 12
625
 22
15
 32
1964
 13
625
 23
430
 33
1964
 70
11
  0
3DFACE
  5
C0
100
AcDbEntity
  8
Melamina 18 Blanca
 62
0
100
AcDbFace
 10
408
 20
430
 30
1964
 11
1160
 21
885
 31
1964
 12
625
 22
430
 32
1964
 13
408
 23
430
 33
1964
 70
11
  0
3DFACE
  5
C1
100
AcDbEntity
  8
Melamina 18 Blanca
 62
0
100
AcDbFace
 10
408
 20
885
 30
1964
 11
1160
 21
885
 31
1964
 12
408
 22
430
 32
1964
 13
408
 23
885
 33
1964
 70
10
  0
3DFACE
  5
C2
100
AcDbEntity
  8
Melamina 18 Blanca
 62
0
100
AcDbFace
 10
625
 20
430
 30
1982
 11
408
 21
885
 31
1982
 12
408
 22
430
 32
1982
 13
625
 23
430
 33
1982
 70
9
  0
3DFACE
  5
C3
100
AcDbEntity
  8
Melamina 18 Blanca
 62
0
100
AcDbFace
 10
1160
 20
15
 30
1982
 11
408
 21
885
 31
1982
 12
625
 22
430
 32
1982
 13
1160
 23
15
 33
1982
 70
15
  0
3DFACE
  5
C4
100
AcDbEntity
  8
Melamina 18 Blanca
 62
0
100
AcDbFace
 10
1160
 20
885
 30
1982
 11
408
 21
885
 31
1982
 12
1160
 22
15
 32
1982
 13
1160
 23
885
 33
1982
 70
10
  0
3DFACE
  5
C5
100
AcDbEntity
  8
Melamina 18 Blanca
 62
0
100
AcDbFace
 10
1160
 20
15
 30
1982
 11
625
 21
430
 31
1982
 12
625
 22
15
 32
1982
 13
1160
 23
15
 33
1982
 70
9
  0
3DFACE
  5
C6
100
AcDbEntity
  8
Melamina 18 Blanca
 62
0
100
AcDbFace
 10
1160
 20
885
 30
1964
 11
1160
 21
885
 31
1982
 12
408
 22
885
 32
1982
 13
408
 23
885
 33
1964
 70
0
  0
3DFACE
  5
C7
100
AcDbEntity
  8
Melamina 18 Blanca
 62
0
100
AcDbFace
 10
408
 20
885
 30
1964
 11
408
 21
885
 31
1982
 12
408
 22
430
 32
1982
 13
408
 23
430
 33
1964
 70
0
  0
3DFACE
  5
C8
100
AcDbEntity
  8
Melamina 18 Blanca
 62
0
100
AcDbFace
 10
408
 20
430
 30
1964
 11
408
 21
430
 31
1982
 12
625
 22
430
 32
1982
 13
625
 23
430
 33
1964
 70
0
  0
3DFACE
  5
C9
100
AcDbEntity
  8
Melamina 18 Blanca
 62
0
100
AcDbFace
 10
625
 20
430
 30
1964
 11
625
 21
430
 31
1982
 12
625
 22
15
 32
1982
 13
625
 23
15
 33
1964
 70
0
  0
3DFACE
  5
CA
100
AcDbEntity
  8
Melamina 18 Blanca
 62
0
100
AcDbFace
 10
625
 20
15
 30
1964
 11
625
 21
15
 31
1982
 12
1160
 22
15
 32
1982
 13
1160
 23
15
 33
1964
 70
0
  0
3DFACE
  5
CB
100
AcDbEntity
  8
Melamina 18 Blanca
 62
0
100
AcDbFace
 10
1160
 20
15
 30
1964
 11
1160
 21
15
 31
1982
 12
1160
 22
885
 32
1982
 13
1160
 23
885
 33
1964
 70
0
  0
ENDBLK
  5
CC
100
AcDbEntity
  8
Melamina 18 Blanca
100
AcDbBlockEnd
  0
BLOCK
  5
CD
100
AcDbEntity
  8
Melamina 18 Nebrasca
100
AcDbBlockBegin
  2
ProyectoMuebleNiñas.EsquineroPlacard.División Vertical [2] (1)
 70
     0
 10
705
 20
368
 30
918
  0
3DFACE
  5
CE
100
AcDbEntity
  8
Melamina 18 Nebrasca
 62
0
100
AcDbFace
 10
705
 20
368
 30
918
 11
625
 21
368
 31
918
 12
625
 22
368
 32
18
 13
705
 23
368
 33
18
 70
0
  0
3DFACE
  5
CF
100
AcDbEntity
  8
Melamina 18 Nebrasca
 62
0
100
AcDbFace
 10
705
 20
350
 30
18
 11
625
 21
350
 31
18
 12
625
 22
350
 32
918
 13
705
 23
350
 33
918
 70
0
  0
3DFACE
  5
D0
100
AcDbEntity
  8
Melamina 18 Nebrasca
 62
0
100
AcDbFace
 10
705
 20
350
 30
918
 11
625
 21
350
 31
918
 12
625
 22
368
 32
918
 13
705
 23
368
 33
918
 70
0
  0
3DFACE
  5
D1
100
AcDbEntity
  8
Melamina 18 Nebrasca
 62
0
100
AcDbFace
 10
625
 20
368
 30
918
 11
625
 21
350
 31
918
 12
625
 22
350
 32
18
 13
625
 23
368
 33
18
 70
0
  0
3DFACE
  5
D2
100
AcDbEntity
  8
Melamina 18 Nebrasca
 62
0
100
AcDbFace
 10
625
 20
368
 30
18
 11
625
 21
350
 31
18
 12
705
 22
350
 32
18
 13
705
 23
368
 33
18
 70
0
  0
3DFACE
  5
D3
100
AcDbEntity
  8
Melamina 18 Nebrasca
 62
0
100
AcDbFace
 10
705
 20
368
 30
918
 11
705
 21
350
 31
918
 12
705
 22
350
 32
18
 13
705
 23
368
 33
18
 70
0
  0
ENDBLK
  5
D4
100
AcDbEntity
  8
Melamina 18 Nebrasca
100
AcDbBlockEnd
  0
BLOCK
  5
D5
100
AcDbEntity
  8
Melamina 18 Nebrasca
100
AcDbBlockBegin
  2
ProyectoMuebleNiñas.EsquineroPlacard.División Vertical [3] (1)
 70
     0
 10
705
 20
368
 30
1964
  0
3DFACE
  5
D6
100
AcDbEntity
  8
Melamina 18 Nebrasca
 62
0
100
AcDbFace
 10
705
 20
368
 30
1964
 11
625
 21
368
 31
1964
 12
625
 22
368
 32
936
 13
705
 23
368
 33
936
 70
0
  0
3DFACE
  5
D7
100
AcDbEntity
  8
Melamina 18 Nebrasca
 62
0
100
AcDbFace
 10
705
 20
350
 30
936
 11
625
 21
350
 31
936
 12
625
 22
350
 32
1964
 13
705
 23
350
 33
1964
 70
0
  0
3DFACE
  5
D8
100
AcDbEntity
  8
Melamina 18 Nebrasca
 62
0
100
AcDbFace
 10
705
 20
350
 30
1964
 11
625
 21
350
 31
1964
 12
625
 22
368
 32
1964
 13
705
 23
368
 33
1964
 70
0
  0
3DFACE
  5
D9
100
AcDbEntity
  8
Melamina 18 Nebrasca
 62
0
100
AcDbFace
 10
625
 20
368
 30
1964
 11
625
 21
350
 31
1964
 12
625
 22
350
 32
936
 13
625
 23
368
 33
936
 70
0
  0
3DFACE
  5
DA
100
AcDbEntity
  8
Melamina 18 Nebrasca
 62
0
100
AcDbFace
 10
625
 20
368
 30
936
 11
625
 21
350
 31
936
 12
705
 22
350
 32
936
 13
705
 23
368
 33
936
 70
0
  0
3DFACE
  5
DB
100
AcDbEntity
  8
Melamina 18 Nebrasca
 62
0
100
AcDbFace
 10
705
 20
368
 30
1964
 11
705
 21
350
 31
1964
 12
705
 22
350
 32
936
 13
705
 23
368
 33
936
 70
0
  0
ENDBLK
  5
DC
100
AcDbEntity
  8
Melamina 18 Nebrasca
100
AcDbBlockEnd
  0
BLOCK
  5
DD
100
AcDbEntity
  8
Melamina 18 Nebrasca
100
AcDbBlockBegin
  2
ProyectoMuebleNiñas.EsquineroPlacard.División Vertical [4] (1)
 70
     0
 10
705
 20
368
 30
2282
  0
3DFACE
  5
DE
100
AcDbEntity
  8
Melamina 18 Nebrasca
 62
0
100
AcDbFace
 10
705
 20
368
 30
2282
 11
625
 21
368
 31
2282
 12
625
 22
368
 32
1982
 13
705
 23
368
 33
1982
 70
0
  0
3DFACE
  5
DF
100
AcDbEntity
  8
Melamina 18 Nebrasca
 62
0
100
AcDbFace
 10
705
 20
350
 30
1982
 11
625
 21
350
 31
1982
 12
625
 22
350
 32
2282
 13
705
 23
350
 33
2282
 70
0
  0
3DFACE
  5
E0
100
AcDbEntity
  8
Melamina 18 Nebrasca
 62
0
100
AcDbFace
 10
705
 20
350
 30
2282
 11
625
 21
350
 31
2282
 12
625
 22
368
 32
2282
 13
705
 23
368
 33
2282
 70
0
  0
3DFACE
  5
E1
100
AcDbEntity
  8
Melamina 18 Nebrasca
 62
0
100
AcDbFace
 10
625
 20
368
 30
2282
 11
625
 21
350
 31
2282
 12
625
 22
350
 32
1982
 13
625
 23
368
 33
1982
 70
0
  0
3DFACE
  5
E2
100
AcDbEntity
  8
Melamina 18 Nebrasca
 62
0
100
AcDbFace
 10
625
 20
368
 30
1982
 11
625
 21
350
 31
1982
 12
705
 22
350
 32
1982
 13
705
 23
368
 33
1982
 70
0
  0
3DFACE
  5
E3
100
AcDbEntity
  8
Melamina 18 Nebrasca
 62
0
100
AcDbFace
 10
705
 20
368
 30
2282
 11
705
 21
350
 31
2282
 12
705
 22
350
 32
1982
 13
705
 23
368
 33
1982
 70
0
  0
ENDBLK
  5
E4
100
AcDbEntity
  8
Melamina 18 Nebrasca
100
AcDbBlockEnd
  0
BLOCK
  5
E5
100
AcDbEntity
  8
Melamina 18 Nebrasca
100
AcDbBlockBegin
  2
ProyectoMuebleNiñas.EsquineroPlacard.División Vertical [5] (1)
 70
     0
 10
625
 20
448
 30
918
  0
3DFACE
  5
E6
100
AcDbEntity
  8
Melamina 18 Nebrasca
 62
0
100
AcDbFace
 10
625
 20
448
 30
918
 11
625
 21
368
 31
918
 12
625
 22
368
 32
18
 13
625
 23
448
 33
18
 70
0
  0
3DFACE
  5
E7
100
AcDbEntity
  8
Melamina 18 Nebrasca
 62
0
100
AcDbFace
 10
643
 20
448
 30
18
 11
643
 21
368
 31
18
 12
643
 22
368
 32
918
 13
643
 23
448
 33
918
 70
0
  0
3DFACE
  5
E8
100
AcDbEntity
  8
Melamina 18 Nebrasca
 62
0
100
AcDbFace
 10
643
 20
448
 30
918
 11
643
 21
368
 31
918
 12
625
 22
368
 32
918
 13
625
 23
448
 33
918
 70
0
  0
3DFACE
  5
E9
100
AcDbEntity
  8
Melamina 18 Nebrasca
 62
0
100
AcDbFace
 10
625
 20
368
 30
918
 11
643
 21
368
 31
918
 12
643
 22
368
 32
18
 13
625
 23
368
 33
18
 70
0
  0
3DFACE
  5
EA
100
AcDbEntity
  8
Melamina 18 Nebrasca
 62
0
100
AcDbFace
 10
625
 20
368
 30
18
 11
643
 21
368
 31
18
 12
643
 22
448
 32
18
 13
625
 23
448
 33
18
 70
0
  0
3DFACE
  5
EB
100
AcDbEntity
  8
Melamina 18 Nebrasca
 62
0
100
AcDbFace
 10
625
 20
448
 30
918
 11
643
 21
448
 31
918
 12
643
 22
448
 32
18
 13
625
 23
448
 33
18
 70
0
  0
ENDBLK
  5
EC
100
AcDbEntity
  8
Melamina 18 Nebrasca
100
AcDbBlockEnd
  0
BLOCK
  5
ED
100
AcDbEntity
  8
Melamina 18 Nebrasca
100
AcDbBlockBegin
  2
ProyectoMuebleNiñas.EsquineroPlacard.División Vertical [6] (1)
 70
     0
 10
625
 20
448
 30
1964
  0
3DFACE
  5
EE
100
AcDbEntity
  8
Melamina 18 Nebrasca
 62
0
100
AcDbFace
 10
625
 20
448
 30
1964
 11
625
 21
368
 31
1964
 12
625
 22
368
 32
936
 13
625
 23
448
 33
936
 70
0
  0
3DFACE
  5
EF
100
AcDbEntity
  8
Melamina 18 Nebrasca
 62
0
100
AcDbFace
 10
643
 20
448
 30
936
 11
643
 21
368
 31
936
 12
643
 22
368
 32
1964
 13
643
 23
448
 33
1964
 70
0
  0
3DFACE
  5
F0
100
AcDbEntity
  8
Melamina 18 Nebrasca
 62
0
100
AcDbFace
 10
643
 20
448
 30
1964
 11
643
 21
368
 31
1964
 12
625
 22
368
 32
1964
 13
625
 23
448
 33
1964
 70
0
  0
3DFACE
  5
F1
100
AcDbEntity
  8
Melamina 18 Nebrasca
 62
0
100
AcDbFace
 10
625
 20
368
 30
1964
 11
643
 21
368
 31
1964
 12
643
 22
368
 32
936
 13
625
 23
368
 33
936
 70
0
  0
3DFACE
  5
F2
100
AcDbEntity
  8
Melamina 18 Nebrasca
 62
0
100
AcDbFace
 10
625
 20
368
 30
936
 11
643
 21
368
 31
936
 12
643
 22
448
 32
936
 13
625
 23
448
 33
936
 70
0
  0
3DFACE
  5
F3
100
AcDbEntity
  8
Melamina 18 Nebrasca
 62
0
100
AcDbFace
 10
625
 20
448
 30
1964
 11
643
 21
448
 31
1964
 12
643
 22
448
 32
936
 13
625
 23
448
 33
936
 70
0
  0
ENDBLK
  5
F4
100
AcDbEntity
  8
Melamina 18 Nebrasca
100
AcDbBlockEnd
  0
BLOCK
  5
F5
100
AcDbEntity
  8
Melamina 18 Nebrasca
100
AcDbBlockBegin
  2
ProyectoMuebleNiñas.EsquineroPlacard.División Vertical [7] (1)
 70
     0
 10
625
 20
448
 30
2282
  0
3DFACE
  5
F6
100
AcDbEntity
  8
Melamina 18 Nebrasca
 62
0
100
AcDbFace
 10
625
 20
448
 30
2282
 11
625
 21
368
 31
2282
 12
625
 22
368
 32
1982
 13
625
 23
448
 33
1982
 70
0
  0
3DFACE
  5
F7
100
AcDbEntity
  8
Melamina 18 Nebrasca
 62
0
100
AcDbFace
 10
643
 20
448
 30
1982
 11
643
 21
368
 31
1982
 12
643
 22
368
 32
2282
 13
643
 23
448
 33
2282
 70
0
  0
3DFACE
  5
F8
100
AcDbEntity
  8
Melamina 18 Nebrasca
 62
0
100
AcDbFace
 10
643
 20
448
 30
2282
 11
643
 21
368
 31
2282
 12
625
 22
368
 32
2282
 13
625
 23
448
 33
2282
 70
0
  0
3DFACE
  5
F9
100
AcDbEntity
  8
Melamina 18 Nebrasca
 62
0
100
AcDbFace
 10
625
 20
368
 30
2282
 11
643
 21
368
 31
2282
 12
643
 22
368
 32
1982
 13
625
 23
368
 33
1982
 70
0
  0
3DFACE
  5
FA
100
AcDbEntity
  8
Melamina 18 Nebrasca
 62
0
100
AcDbFace
 10
625
 20
368
 30
1982
 11
643
 21
368
 31
1982
 12
643
 22
448
 32
1982
 13
625
 23
448
 33
1982
 70
0
  0
3DFACE
  5
FB
100
AcDbEntity
  8
Melamina 18 Nebrasca
 62
0
100
AcDbFace
 10
625
 20
448
 30
2282
 11
643
 21
448
 31
2282
 12
643
 22
448
 32
1982
 13
625
 23
448
 33
1982
 70
0
  0
ENDBLK
  5
FC
100
AcDbEntity
  8
Melamina 18 Nebrasca
100
AcDbBlockEnd
  0
BLOCK
  5
FD
100
AcDbEntity
  8
Melamina 15 Blanca
100
AcDbBlockBegin
  2
ProyectoMuebleNiñas.EsquineroPlacard.Estante Fijo [3]
 70
     0
 10
390
 20
885
 30
918
  0
3DFACE
  5
FE
100
AcDbEntity
  8
Melamina 15 Blanca
 62
0
100
AcDbFace
 10
390
 20
885
 30
918
 11
15
 21
885
 31
918
 12
15
 22
430
 32
918
 13
390
 23
430
 33
918
 70
0
  0
3DFACE
  5
FF
100
AcDbEntity
  8
Melamina 15 Blanca
 62
0
100
AcDbFace
 10
390
 20
885
 30
933
 11
15
 21
885
 31
933
 12
15
 22
430
 32
933
 13
390
 23
430
 33
933
 70
0
  0
3DFACE
  5
100
100
AcDbEntity
  8
Melamina 15 Blanca
 62
0
100
AcDbFace
 10
390
 20
885
 30
918
 11
390
 21
885
 31
933
 12
15
 22
885
 32
933
 13
15
 23
885
 33
918
 70
0
  0
3DFACE
  5
101
100
AcDbEntity
  8
Melamina 15 Blanca
 62
0
100
AcDbFace
 10
15
 20
885
 30
918
 11
15
 21
885
 31
933
 12
15
 22
430
 32
933
 13
15
 23
430
 33
918
 70
0
  0
3DFACE
  5
102
100
AcDbEntity
  8
Melamina 15 Blanca
 62
0
100
AcDbFace
 10
15
 20
430
 30
918
 11
15
 21
430
 31
933
 12
390
 22
430
 32
933
 13
390
 23
430
 33
918
 70
0
  0
3DFACE
  5
103
100
AcDbEntity
  8
Melamina 15 Blanca
 62
0
100
AcDbFace
 10
390
 20
430
 30
918
 11
390
 21
430
 31
933
 12
390
 22
885
 32
933
 13
390
 23
885
 33
918
 70
0
  0
ENDBLK
  5
104
100
AcDbEntity
  8
Melamina 15 Blanca
100
AcDbBlockEnd
  0
BLOCK
  5
105
100
AcDbEntity
  8
Melamina 15 Blanca
100
AcDbBlockBegin
  2
ProyectoMuebleNiñas.EsquineroPlacard.Estante Fijo [4]
 70
     0
 10
390
 20
885
 30
1372.66666667
  0
3DFACE
  5
106
100
AcDbEntity
  8
Melamina 15 Blanca
 62
0
100
AcDbFace
 10
390
 20
885
 30
1372.66666667
 11
15
 21
885
 31
1372.66666667
 12
15
 22
430
 32
1372.66666667
 13
390
 23
430
 33
1372.66666667
 70
0
  0
3DFACE
  5
107
100
AcDbEntity
  8
Melamina 15 Blanca
 62
0
100
AcDbFace
 10
390
 20
885
 30
1387.66666667
 11
15
 21
885
 31
1387.66666667
 12
15
 22
430
 32
1387.66666667
 13
390
 23
430
 33
1387.66666667
 70
0
  0
3DFACE
  5
108
100
AcDbEntity
  8
Melamina 15 Blanca
 62
0
100
AcDbFace
 10
390
 20
885
 30
1372.66666667
 11
390
 21
885
 31
1387.66666667
 12
15
 22
885
 32
1387.66666667
 13
15
 23
885
 33
1372.66666667
 70
0
  0
3DFACE
  5
109
100
AcDbEntity
  8
Melamina 15 Blanca
 62
0
100
AcDbFace
 10
15
 20
885
 30
1372.66666667
 11
15
 21
885
 31
1387.66666667
 12
15
 22
430
 32
1387.66666667
 13
15
 23
430
 33
1372.66666667
 70
0
  0
3DFACE
  5
10A
100
AcDbEntity
  8
Melamina 15 Blanca
 62
0
100
AcDbFace
 10
15
 20
430
 30
1372.66666667
 11
15
 21
430
 31
1387.66666667
 12
390
 22
430
 32
1387.66666667
 13
390
 23
430
 33
1372.66666667
 70
0
  0
3DFACE
  5
10B
100
AcDbEntity
  8
Melamina 15 Blanca
 62
0
100
AcDbFace
 10
390
 20
430
 30
1372.66666667
 11
390
 21
430
 31
1387.66666667
 12
390
 22
885
 32
1387.66666667
 13
390
 23
885
 33
1372.66666667
 70
0
  0
ENDBLK
  5
10C
100
AcDbEntity
  8
Melamina 15 Blanca
100
AcDbBlockEnd
  0
BLOCK
  5
10D
100
AcDbEntity
  8
Melamina 15 Blanca
100
AcDbBlockBegin
  2
ProyectoMuebleNiñas.EsquineroPlacard.Estante Fijo [5]
 70
     0
 10
390
 20
885
 30
1827.33333333
  0
3DFACE
  5
10E
100
AcDbEntity
  8
Melamina 15 Blanca
 62
0
100
AcDbFace
 10
390
 20
885
 30
1827.33333333
 11
15
 21
885
 31
1827.33333333
 12
15
 22
430
 32
1827.33333333
 13
390
 23
430
 33
1827.33333333
 70
0
  0
3DFACE
  5
10F
100
AcDbEntity
  8
Melamina 15 Blanca
 62
0
100
AcDbFace
 10
390
 20
885
 30
1842.33333333
 11
15
 21
885
 31
1842.33333333
 12
15
 22
430
 32
1842.33333333
 13
390
 23
430
 33
1842.33333333
 70
0
  0
3DFACE
  5
110
100
AcDbEntity
  8
Melamina 15 Blanca
 62
0
100
AcDbFace
 10
390
 20
885
 30
1827.33333333
 11
390
 21
885
 31
1842.33333333
 12
15
 22
885
 32
1842.33333333
 13
15
 23
885
 33
1827.33333333
 70
0
  0
3DFACE
  5
111
100
AcDbEntity
  8
Melamina 15 Blanca
 62
0
100
AcDbFace
 10
15
 20
885
 30
1827.33333333
 11
15
 21
885
 31
1842.33333333
 12
15
 22
430
 32
1842.33333333
 13
15
 23
430
 33
1827.33333333
 70
0
  0
3DFACE
  5
112
100
AcDbEntity
  8
Melamina 15 Blanca
 62
0
100
AcDbFace
 10
15
 20
430
 30
1827.33333333
 11
15
 21
430
 31
1842.33333333
 12
390
 22
430
 32
1842.33333333
 13
390
 23
430
 33
1827.33333333
 70
0
  0
3DFACE
  5
113
100
AcDbEntity
  8
Melamina 15 Blanca
 62
0
100
AcDbFace
 10
390
 20
430
 30
1827.33333333
 11
390
 21
430
 31
1842.33333333
 12
390
 22
885
 32
1842.33333333
 13
390
 23
885
 33
1827.33333333
 70
0
  0
ENDBLK
  5
114
100
AcDbEntity
  8
Melamina 15 Blanca
100
AcDbBlockEnd
  0
BLOCK
  5
115
100
AcDbEntity
  8
Melamina 15 Blanca
100
AcDbBlockBegin
  2
ProyectoMuebleNiñas.EsquineroPlacard.Estante Fijo [6]
 70
     0
 10
390
 20
885
 30
460.5
  0
3DFACE
  5
116
100
AcDbEntity
  8
Melamina 15 Blanca
 62
0
100
AcDbFace
 10
390
 20
885
 30
460.5
 11
15
 21
885
 31
460.5
 12
15
 22
430
 32
460.5
 13
390
 23
430
 33
460.5
 70
0
  0
3DFACE
  5
117
100
AcDbEntity
  8
Melamina 15 Blanca
 62
0
100
AcDbFace
 10
390
 20
885
 30
475.5
 11
15
 21
885
 31
475.5
 12
15
 22
430
 32
475.5
 13
390
 23
430
 33
475.5
 70
0
  0
3DFACE
  5
118
100
AcDbEntity
  8
Melamina 15 Blanca
 62
0
100
AcDbFace
 10
390
 20
885
 30
460.5
 11
390
 21
885
 31
475.5
 12
15
 22
885
 32
475.5
 13
15
 23
885
 33
460.5
 70
0
  0
3DFACE
  5
119
100
AcDbEntity
  8
Melamina 15 Blanca
 62
0
100
AcDbFace
 10
15
 20
885
 30
460.5
 11
15
 21
885
 31
475.5
 12
15
 22
430
 32
475.5
 13
15
 23
430
 33
460.5
 70
0
  0
3DFACE
  5
11A
100
AcDbEntity
  8
Melamina 15 Blanca
 62
0
100
AcDbFace
 10
15
 20
430
 30
460.5
 11
15
 21
430
 31
475.5
 12
390
 22
430
 32
475.5
 13
390
 23
430
 33
460.5
 70
0
  0
3DFACE
  5
11B
100
AcDbEntity
  8
Melamina 15 Blanca
 62
0
100
AcDbFace
 10
390
 20
430
 30
460.5
 11
390
 21
430
 31
475.5
 12
390
 22
885
 32
475.5
 13
390
 23
885
 33
460.5
 70
0
  0
ENDBLK
  5
11C
100
AcDbEntity
  8
Melamina 15 Blanca
100
AcDbBlockEnd
  0
BLOCK
  5
11D
100
AcDbEntity
  8
Melamina 18 Nebrasca
100
AcDbBlockBegin
  2
ProyectoMuebleNiñas.EsquineroPlacard.Puerta 1 (unica) [1]
 70
     0
 10
607
 20
6
 30
6
  0
3DFACE
  5
11E
100
AcDbEntity
  8
Melamina 18 Nebrasca
 62
0
100
AcDbFace
 10
607
 20
6
 30
6
 11
607
 21
6
 31
924
 12
607
 22
344
 32
924
 13
607
 23
344
 33
6
 70
0
  0
3DFACE
  5
11F
100
AcDbEntity
  8
Melamina 18 Nebrasca
 62
0
100
AcDbFace
 10
625
 20
6
 30
6
 11
625
 21
6
 31
924
 12
625
 22
344
 32
924
 13
625
 23
344
 33
6
 70
0
  0
3DFACE
  5
120
100
AcDbEntity
  8
Melamina 18 Nebrasca
 62
0
100
AcDbFace
 10
625
 20
6
 30
6
 11
607
 21
6
 31
6
 12
607
 22
6
 32
924
 13
625
 23
6
 33
924
 70
0
  0
3DFACE
  5
121
100
AcDbEntity
  8
Melamina 18 Nebrasca
 62
0
100
AcDbFace
 10
625
 20
6
 30
924
 11
607
 21
6
 31
924
 12
607
 22
344
 32
924
 13
625
 23
344
 33
924
 70
0
  0
3DFACE
  5
122
100
AcDbEntity
  8
Melamina 18 Nebrasca
 62
0
100
AcDbFace
 10
625
 20
344
 30
924
 11
607
 21
344
 31
924
 12
607
 22
344
 32
6
 13
625
 23
344
 33
6
 70
0
  0
3DFACE
  5
123
100
AcDbEntity
  8
Melamina 18 Nebrasca
 62
0
100
AcDbFace
 10
625
 20
344
 30
6
 11
607
 21
344
 31
6
 12
607
 22
6
 32
6
 13
625
 23
6
 33
6
 70
0
  0
ENDBLK
  5
124
100
AcDbEntity
  8
Melamina 18 Nebrasca
100
AcDbBlockEnd
  0
BLOCK
  5
125
100
AcDbEntity
  8
Melamina 18 Nebrasca
100
AcDbBlockBegin
  2
ProyectoMuebleNiñas.EsquineroPlacard.Puerta 1 (unica) [2]
 70
     0
 10
607
 20
6
 30
930
  0
3DFACE
  5
126
100
AcDbEntity
  8
Melamina 18 Nebrasca
 62
0
100
AcDbFace
 10
607
 20
6
 30
930
 11
607
 21
6
 31
2290
 12
607
 22
344
 32
2290
 13
607
 23
344
 33
930
 70
0
  0
3DFACE
  5
127
100
AcDbEntity
  8
Melamina 18 Nebrasca
 62
0
100
AcDbFace
 10
625
 20
6
 30
930
 11
625
 21
6
 31
2290
 12
625
 22
344
 32
2290
 13
625
 23
344
 33
930
 70
0
  0
3DFACE
  5
128
100
AcDbEntity
  8
Melamina 18 Nebrasca
 62
0
100
AcDbFace
 10
625
 20
6
 30
930
 11
607
 21
6
 31
930
 12
607
 22
6
 32
2290
 13
625
 23
6
 33
2290
 70
0
  0
3DFACE
  5
129
100
AcDbEntity
  8
Melamina 18 Nebrasca
 62
0
100
AcDbFace
 10
625
 20
6
 30
2290
 11
607
 21
6
 31
2290
 12
607
 22
344
 32
2290
 13
625
 23
344
 33
2290
 70
0
  0
3DFACE
  5
12A
100
AcDbEntity
  8
Melamina 18 Nebrasca
 62
0
100
AcDbFace
 10
625
 20
344
 30
2290
 11
607
 21
344
 31
2290
 12
607
 22
344
 32
930
 13
625
 23
344
 33
930
 70
0
  0
3DFACE
  5
12B
100
AcDbEntity
  8
Melamina 18 Nebrasca
 62
0
100
AcDbFace
 10
625
 20
344
 30
930
 11
607
 21
344
 31
930
 12
607
 22
6
 32
930
 13
625
 23
6
 33
930
 70
0
  0
ENDBLK
  5
12C
100
AcDbEntity
  8
Melamina 18 Nebrasca
100
AcDbBlockEnd
  0
BLOCK
  5
12D
100
AcDbEntity
  8
0
100
AcDbBlockBegin
  2
ProyectoMuebleNiñas.LatDerPlacard
 70
     0
 10
0
 20
0
 30
0
  0
INSERT
  5
12E
100
AcDbEntity
  8
Melamina 18 Nebrasca
100
AcDbBlockReference
  2
ProyectoMuebleNiñas.LatDerPlacard.Suelo
 10
0
 20
18
 30
0
210
0
220
0
230
1
  0
INSERT
  5
12F
100
AcDbEntity
  8
Melamina 18 Nebrasca
100
AcDbBlockReference
  2
ProyectoMuebleNiñas.LatDerPlacard.Techo
 10
600
 20
18
 30
2300
210
0
220
0
230
1
  0
INSERT
  5
130
100
AcDbEntity
  8
Melamina 18 Nebrasca
100
AcDbBlockReference
  2
ProyectoMuebleNiñas.LatDerPlacard.Lateral Derecho
 10
600
 20
18
 30
18
210
0
220
0
230
1
  0
INSERT
  5
131
100
AcDbEntity
  8
Melamina 15 Blanca
100
AcDbBlockReference
  2
ProyectoMuebleNiñas.LatDerPlacard.Trasera
 10
15
 20
568
 30
2282
210
0
220
0
230
1
  0
INSERT
  5
132
100
AcDbEntity
  8
Melamina 15 Blanca
100
AcDbBlockReference
  2
ProyectoMuebleNiñas.LatDerPlacard.Lateral Izquierdo
 10
0
 20
18
 30
2282
210
0
220
0
230
1
  0
INSERT
  5
133
100
AcDbEntity
  8
Melamina 15 Blanca
100
AcDbBlockReference
  2
ProyectoMuebleNiñas.LatDerPlacard.Estante Fijo [1]
 10
15
 20
18
 30
368
210
0
220
0
230
1
  0
INSERT
  5
134
100
AcDbEntity
  8
Melamina 18 Blanca
100
AcDbBlockReference
  2
ProyectoMuebleNiñas.LatDerPlacard.Estante Fijo [2]
 10
15
 20
18
 30
1964
210
0
220
0
230
1
  0
INSERT
  5
135
100
AcDbEntity
  8
Melamina 15 Blanca
100
AcDbBlockReference
  2
ProyectoMuebleNiñas.LatDerPlacard.Estante Fijo [3]
 10
15
 20
18
 30
733
210
0
220
0
230
1
  0
INSERT
  5
136
100
AcDbEntity
  8
Melamina 18 Nebrasca
100
AcDbBlockReference
  2
ProyectoMuebleNiñas.LatDerPlacard.Cajón 1 [1] (1)
 10
8
 20
18
 30
379.5
210
0
220
0
230
1
  0
INSERT
  5
137
100
AcDbEntity
  8
Melamina 18 Nebrasca
100
AcDbBlockReference
  2
ProyectoMuebleNiñas.LatDerPlacard.Contra-Frente Cajón 1 [1]
 10
28
 20
18
 30
393
210
0
220
0
230
1
  0
INSERT
  5
138
100
AcDbEntity
  8
Melamina 15 Blanca
100
AcDbBlockReference
  2
ProyectoMuebleNiñas.LatDerPlacard.Lateral Izq Cajón 1 [1]
 10
28
 20
36
 30
583
210
0
220
0
230
1
  0
INSERT
  5
139
100
AcDbEntity
  8
Melamina 15 Blanca
100
AcDbBlockReference
  2
ProyectoMuebleNiñas.LatDerPlacard.Lateral Der Cajón 1 [1]
 10
569
 20
36
 30
393
210
0
220
0
230
1
  0
INSERT
  5
13A
100
AcDbEntity
  8
Melamina 15 Blanca
100
AcDbBlockReference
  2
ProyectoMuebleNiñas.LatDerPlacard.Fondo Cajón 1 [1]
 10
43
 20
36
 30
393
210
0
220
0
230
1
  0
INSERT
  5
13B
100
AcDbEntity
  8
Melamina 15 Blanca
100
AcDbBlockReference
  2
ProyectoMuebleNiñas.LatDerPlacard.Trasera Cajón 1 [1]
 10
43
 20
543
 30
583
210
0
220
0
230
1
  0
INSERT
  5
13C
100
AcDbEntity
  8
Melamina 18 Nebrasca
100
AcDbBlockReference
  2
ProyectoMuebleNiñas.LatDerPlacard.Cajón 1 [2] (1)
 10
8
 20
18
 30
8
210
0
220
0
230
1
  0
INSERT
  5
13D
100
AcDbEntity
  8
Melamina 18 Nebrasca
100
AcDbBlockReference
  2
ProyectoMuebleNiñas.LatDerPlacard.Contra-Frente Cajón 1 [2]
 10
28
 20
18
 30
28
210
0
220
0
230
1
  0
INSERT
  5
13E
100
AcDbEntity
  8
Melamina 15 Blanca
100
AcDbBlockReference
  2
ProyectoMuebleNiñas.LatDerPlacard.Lateral Izq Cajón 1 [2]
 10
28
 20
36
 30
218
210
0
220
0
230
1
  0
INSERT
  5
13F
100
AcDbEntity
  8
Melamina 15 Blanca
100
AcDbBlockReference
  2
ProyectoMuebleNiñas.LatDerPlacard.Lateral Der Cajón 1 [2]
 10
569
 20
36
 30
28
210
0
220
0
230
1
  0
INSERT
  5
140
100
AcDbEntity
  8
Melamina 15 Blanca
100
AcDbBlockReference
  2
ProyectoMuebleNiñas.LatDerPlacard.Fondo Cajón 1 [2]
 10
43
 20
36
 30
28
210
0
220
0
230
1
  0
INSERT
  5
141
100
AcDbEntity
  8
Melamina 18 Blanca
100
AcDbBlockReference
  2
ProyectoMuebleNiñas.LatDerPlacard.Trasera Cajón 1 [2]
 10
43
 20
543
 30
218
210
0
220
0
230
1
  0
INSERT
  5
142
100
AcDbEntity
  8
Melamina 18 Nebrasca
100
AcDbBlockReference
  2
ProyectoMuebleNiñas.LatDerPlacard.Puerta 1 (unica) [1]
 10
8
 20
0
 30
2290
210
0
220
0
230
1
  0
ENDBLK
  5
143
100
AcDbEntity
  8
0
100
AcDbBlockEnd
  0
BLOCK
  5
144
100
AcDbEntity
  8
Melamina 18 Nebrasca
100
AcDbBlockBegin
  2
ProyectoMuebleNiñas.LatDerPlacard.Suelo
 70
     0
 10
0
 20
18
 30
0
  0
3DFACE
  5
145
100
AcDbEntity
  8
Melamina 18 Nebrasca
 62
0
100
AcDbFace
 10
0
 20
18
 30
0
 11
0
 21
568
 31
0
 12
600
 22
568
 32
0
 13
600
 23
18
 33
0
 70
0
  0
3DFACE
  5
146
100
AcDbEntity
  8
Melamina 18 Nebrasca
 62
0
100
AcDbFace
 10
0
 20
18
 30
18
 11
0
 21
568
 31
18
 12
600
 22
568
 32
18
 13
600
 23
18
 33
18
 70
0
  0
3DFACE
  5
147
100
AcDbEntity
  8
Melamina 18 Nebrasca
 62
0
100
AcDbFace
 10
0
 20
18
 30
18
 11
0
 21
568
 31
18
 12
0
 22
568
 32
0
 13
0
 23
18
 33
0
 70
0
  0
3DFACE
  5
148
100
AcDbEntity
  8
Melamina 18 Nebrasca
 62
0
100
AcDbFace
 10
0
 20
568
 30
18
 11
600
 21
568
 31
18
 12
600
 22
568
 32
0
 13
0
 23
568
 33
0
 70
0
  0
3DFACE
  5
149
100
AcDbEntity
  8
Melamina 18 Nebrasca
 62
0
100
AcDbFace
 10
600
 20
568
 30
18
 11
600
 21
18
 31
18
 12
600
 22
18
 32
0
 13
600
 23
568
 33
0
 70
0
  0
3DFACE
  5
14A
100
AcDbEntity
  8
Melamina 18 Nebrasca
 62
0
100
AcDbFace
 10
600
 20
18
 30
18
 11
0
 21
18
 31
18
 12
0
 22
18
 32
0
 13
600
 23
18
 33
0
 70
0
  0
ENDBLK
  5
14B
100
AcDbEntity
  8
Melamina 18 Nebrasca
100
AcDbBlockEnd
  0
BLOCK
  5
14C
100
AcDbEntity
  8
Melamina 18 Nebrasca
100
AcDbBlockBegin
  2
ProyectoMuebleNiñas.LatDerPlacard.Techo
 70
     0
 10
600
 20
18
 30
2300
  0
3DFACE
  5
14D
100
AcDbEntity
  8
Melamina 18 Nebrasca
 62
0
100
AcDbFace
 10
600
 20
18
 30
2300
 11
600
 21
568
 31
2300
 12
0
 22
568
 32
2300
 13
0
 23
18
 33
2300
 70
0
  0
3DFACE
  5
14E
100
AcDbEntity
  8
Melamina 18 Nebrasca
 62
0
100
AcDbFace
 10
600
 20
18
 30
2282
 11
600
 21
568
 31
2282
 12
0
 22
568
 32
2282
 13
0
 23
18
 33
2282
 70
0
  0
3DFACE
  5
14F
100
AcDbEntity
  8
Melamina 18 Nebrasca
 62
0
100
AcDbFace
 10
600
 20
18
 30
2282
 11
600
 21
568
 31
2282
 12
600
 22
568
 32
2300
 13
600
 23
18
 33
2300
 70
0
  0
3DFACE
  5
150
100
AcDbEntity
  8
Melamina 18 Nebrasca
 62
0
100
AcDbFace
 10
600
 20
568
 30
2282
 11
0
 21
568
 31
2282
 12
0
 22
568
 32
2300
 13
600
 23
568
 33
2300
 70
0
  0
3DFACE
  5
151
100
AcDbEntity
  8
Melamina 18 Nebrasca
 62
0
100
AcDbFace
 10
0
 20
568
 30
2282
 11
0
 21
18
 31
2282
 12
0
 22
18
 32
2300
 13
0
 23
568
 33
2300
 70
0
  0
3DFACE
  5
152
100
AcDbEntity
  8
Melamina 18 Nebrasca
 62
0
100
AcDbFace
 10
0
 20
18
 30
2282
 11
600
 21
18
 31
2282
 12
600
 22
18
 32
2300
 13
0
 23
18
 33
2300
 70
0
  0
ENDBLK
  5
153
100
AcDbEntity
  8
Melamina 18 Nebrasca
100
AcDbBlockEnd
  0
BLOCK
  5
154
100
AcDbEntity
  8
Melamina 18 Nebrasca
100
AcDbBlockBegin
  2
ProyectoMuebleNiñas.LatDerPlacard.Lateral Derecho
 70
     0
 10
600
 20
18
 30
18
  0
3DFACE
  5
155
100
AcDbEntity
  8
Melamina 18 Nebrasca
 62
0
100
AcDbFace
 10
600
 20
18
 30
18
 11
600
 21
568
 31
18
 12
600
 22
568
 32
2282
 13
600
 23
18
 33
2282
 70
0
  0
3DFACE
  5
156
100
AcDbEntity
  8
Melamina 18 Nebrasca
 62
0
100
AcDbFace
 10
582
 20
18
 30
18
 11
582
 21
568
 31
18
 12
582
 22
568
 32
2282
 13
582
 23
18
 33
2282
 70
0
  0
3DFACE
  5
157
100
AcDbEntity
  8
Melamina 18 Nebrasca
 62
0
100
AcDbFace
 10
582
 20
18
 30
18
 11
582
 21
568
 31
18
 12
600
 22
568
 32
18
 13
600
 23
18
 33
18
 70
0
  0
3DFACE
  5
158
100
AcDbEntity
  8
Melamina 18 Nebrasca
 62
0
100
AcDbFace
 10
582
 20
568
 30
18
 11
582
 21
568
 31
2282
 12
600
 22
568
 32
2282
 13
600
 23
568
 33
18
 70
0
  0
3DFACE
  5
159
100
AcDbEntity
  8
Melamina 18 Nebrasca
 62
0
100
AcDbFace
 10
582
 20
568
 30
2282
 11
582
 21
18
 31
2282
 12
600
 22
18
 32
2282
 13
600
 23
568
 33
2282
 70
0
  0
3DFACE
  5
15A
100
AcDbEntity
  8
Melamina 18 Nebrasca
 62
0
100
AcDbFace
 10
582
 20
18
 30
2282
 11
582
 21
18
 31
18
 12
600
 22
18
 32
18
 13
600
 23
18
 33
2282
 70
0
  0
ENDBLK
  5
15B
100
AcDbEntity
  8
Melamina 18 Nebrasca
100
AcDbBlockEnd
  0
BLOCK
  5
15C
100
AcDbEntity
  8
Melamina 15 Blanca
100
AcDbBlockBegin
  2
ProyectoMuebleNiñas.LatDerPlacard.Trasera
 70
     0
 10
15
 20
568
 30
2282
  0
3DFACE
  5
15D
100
AcDbEntity
  8
Melamina 15 Blanca
 62
0
100
AcDbFace
 10
15
 20
568
 30
2282
 11
582
 21
568
 31
2282
 12
582
 22
568
 32
18
 13
15
 23
568
 33
18
 70
0
  0
3DFACE
  5
15E
100
AcDbEntity
  8
Melamina 15 Blanca
 62
0
100
AcDbFace
 10
15
 20
553
 30
2282
 11
582
 21
553
 31
2282
 12
582
 22
553
 32
18
 13
15
 23
553
 33
18
 70
0
  0
3DFACE
  5
15F
100
AcDbEntity
  8
Melamina 15 Blanca
 62
0
100
AcDbFace
 10
15
 20
553
 30
2282
 11
582
 21
553
 31
2282
 12
582
 22
568
 32
2282
 13
15
 23
568
 33
2282
 70
0
  0
3DFACE
  5
160
100
AcDbEntity
  8
Melamina 15 Blanca
 62
0
100
AcDbFace
 10
582
 20
553
 30
2282
 11
582
 21
553
 31
18
 12
582
 22
568
 32
18
 13
582
 23
568
 33
2282
 70
0
  0
3DFACE
  5
161
100
AcDbEntity
  8
Melamina 15 Blanca
 62
0
100
AcDbFace
 10
582
 20
553
 30
18
 11
15
 21
553
 31
18
 12
15
 22
568
 32
18
 13
582
 23
568
 33
18
 70
0
  0
3DFACE
  5
162
100
AcDbEntity
  8
Melamina 15 Blanca
 62
0
100
AcDbFace
 10
15
 20
553
 30
18
 11
15
 21
553
 31
2282
 12
15
 22
568
 32
2282
 13
15
 23
568
 33
18
 70
0
  0
ENDBLK
  5
163
100
AcDbEntity
  8
Melamina 15 Blanca
100
AcDbBlockEnd
  0
BLOCK
  5
164
100
AcDbEntity
  8
Melamina 15 Blanca
100
AcDbBlockBegin
  2
ProyectoMuebleNiñas.LatDerPlacard.Lateral Izquierdo
 70
     0
 10
0
 20
18
 30
2282
  0
3DFACE
  5
165
100
AcDbEntity
  8
Melamina 15 Blanca
 62
0
100
AcDbFace
 10
0
 20
18
 30
2282
 11
0
 21
568
 31
2282
 12
0
 22
568
 32
18
 13
0
 23
18
 33
18
 70
0
  0
3DFACE
  5
166
100
AcDbEntity
  8
Melamina 15 Blanca
 62
0
100
AcDbFace
 10
15
 20
18
 30
2282
 11
15
 21
568
 31
2282
 12
15
 22
568
 32
18
 13
15
 23
18
 33
18
 70
0
  0
3DFACE
  5
167
100
AcDbEntity
  8
Melamina 15 Blanca
 62
0
100
AcDbFace
 10
15
 20
18
 30
2282
 11
15
 21
568
 31
2282
 12
0
 22
568
 32
2282
 13
0
 23
18
 33
2282
 70
0
  0
3DFACE
  5
168
100
AcDbEntity
  8
Melamina 15 Blanca
 62
0
100
AcDbFace
 10
15
 20
568
 30
2282
 11
15
 21
568
 31
18
 12
0
 22
568
 32
18
 13
0
 23
568
 33
2282
 70
0
  0
3DFACE
  5
169
100
AcDbEntity
  8
Melamina 15 Blanca
 62
0
100
AcDbFace
 10
15
 20
568
 30
18
 11
15
 21
18
 31
18
 12
0
 22
18
 32
18
 13
0
 23
568
 33
18
 70
0
  0
3DFACE
  5
16A
100
AcDbEntity
  8
Melamina 15 Blanca
 62
0
100
AcDbFace
 10
15
 20
18
 30
18
 11
15
 21
18
 31
2282
 12
0
 22
18
 32
2282
 13
0
 23
18
 33
18
 70
0
  0
ENDBLK
  5
16B
100
AcDbEntity
  8
Melamina 15 Blanca
100
AcDbBlockEnd
  0
BLOCK
  5
16C
100
AcDbEntity
  8
Melamina 15 Blanca
100
AcDbBlockBegin
  2
ProyectoMuebleNiñas.LatDerPlacard.Estante Fijo [1]
 70
     0
 10
15
 20
18
 30
368
  0
3DFACE
  5
16D
100
AcDbEntity
  8
Melamina 15 Blanca
 62
0
100
AcDbFace
 10
15
 20
18
 30
368
 11
582
 21
18
 31
368
 12
582
 22
553
 32
368
 13
15
 23
553
 33
368
 70
0
  0
3DFACE
  5
16E
100
AcDbEntity
  8
Melamina 15 Blanca
 62
0
100
AcDbFace
 10
15
 20
18
 30
383
 11
582
 21
18
 31
383
 12
582
 22
553
 32
383
 13
15
 23
553
 33
383
 70
0
  0
3DFACE
  5
16F
100
AcDbEntity
  8
Melamina 15 Blanca
 62
0
100
AcDbFace
 10
15
 20
18
 30
368
 11
15
 21
18
 31
383
 12
582
 22
18
 32
383
 13
582
 23
18
 33
368
 70
0
  0
3DFACE
  5
170
100
AcDbEntity
  8
Melamina 15 Blanca
 62
0
100
AcDbFace
 10
582
 20
18
 30
368
 11
582
 21
18
 31
383
 12
582
 22
553
 32
383
 13
582
 23
553
 33
368
 70
0
  0
3DFACE
  5
171
100
AcDbEntity
  8
Melamina 15 Blanca
 62
0
100
AcDbFace
 10
582
 20
553
 30
368
 11
582
 21
553
 31
383
 12
15
 22
553
 32
383
 13
15
 23
553
 33
368
 70
0
  0
3DFACE
  5
172
100
AcDbEntity
  8
Melamina 15 Blanca
 62
0
100
AcDbFace
 10
15
 20
553
 30
368
 11
15
 21
553
 31
383
 12
15
 22
18
 32
383
 13
15
 23
18
 33
368
 70
0
  0
ENDBLK
  5
173
100
AcDbEntity
  8
Melamina 15 Blanca
100
AcDbBlockEnd
  0
BLOCK
  5
174
100
AcDbEntity
  8
Melamina 18 Blanca
100
AcDbBlockBegin
  2
ProyectoMuebleNiñas.LatDerPlacard.Estante Fijo [2]
 70
     0
 10
15
 20
18
 30
1964
  0
3DFACE
  5
175
100
AcDbEntity
  8
Melamina 18 Blanca
 62
0
100
AcDbFace
 10
15
 20
18
 30
1964
 11
582
 21
18
 31
1964
 12
582
 22
553
 32
1964
 13
15
 23
553
 33
1964
 70
0
  0
3DFACE
  5
176
100
AcDbEntity
  8
Melamina 18 Blanca
 62
0
100
AcDbFace
 10
15
 20
18
 30
1982
 11
582
 21
18
 31
1982
 12
582
 22
553
 32
1982
 13
15
 23
553
 33
1982
 70
0
  0
3DFACE
  5
177
100
AcDbEntity
  8
Melamina 18 Blanca
 62
0
100
AcDbFace
 10
15
 20
18
 30
1964
 11
15
 21
18
 31
1982
 12
582
 22
18
 32
1982
 13
582
 23
18
 33
1964
 70
0
  0
3DFACE
  5
178
100
AcDbEntity
  8
Melamina 18 Blanca
 62
0
100
AcDbFace
 10
582
 20
18
 30
1964
 11
582
 21
18
 31
1982
 12
582
 22
553
 32
1982
 13
582
 23
553
 33
1964
 70
0
  0
3DFACE
  5
179
100
AcDbEntity
  8
Melamina 18 Blanca
 62
0
100
AcDbFace
 10
582
 20
553
 30
1964
 11
582
 21
553
 31
1982
 12
15
 22
553
 32
1982
 13
15
 23
553
 33
1964
 70
0
  0
3DFACE
  5
17A
100
AcDbEntity
  8
Melamina 18 Blanca
 62
0
100
AcDbFace
 10
15
 20
553
 30
1964
 11
15
 21
553
 31
1982
 12
15
 22
18
 32
1982
 13
15
 23
18
 33
1964
 70
0
  0
ENDBLK
  5
17B
100
AcDbEntity
  8
Melamina 18 Blanca
100
AcDbBlockEnd
  0
BLOCK
  5
17C
100
AcDbEntity
  8
Melamina 15 Blanca
100
AcDbBlockBegin
  2
ProyectoMuebleNiñas.LatDerPlacard.Estante Fijo [3]
 70
     0
 10
15
 20
18
 30
733
  0
3DFACE
  5
17D
100
AcDbEntity
  8
Melamina 15 Blanca
 62
0
100
AcDbFace
 10
15
 20
18
 30
733
 11
582
 21
18
 31
733
 12
582
 22
553
 32
733
 13
15
 23
553
 33
733
 70
0
  0
3DFACE
  5
17E
100
AcDbEntity
  8
Melamina 15 Blanca
 62
0
100
AcDbFace
 10
15
 20
18
 30
748
 11
582
 21
18
 31
748
 12
582
 22
553
 32
748
 13
15
 23
553
 33
748
 70
0
  0
3DFACE
  5
17F
100
AcDbEntity
  8
Melamina 15 Blanca
 62
0
100
AcDbFace
 10
15
 20
18
 30
733
 11
15
 21
18
 31
748
 12
582
 22
18
 32
748
 13
582
 23
18
 33
733
 70
0
  0
3DFACE
  5
180
100
AcDbEntity
  8
Melamina 15 Blanca
 62
0
100
AcDbFace
 10
582
 20
18
 30
733
 11
582
 21
18
 31
748
 12
582
 22
553
 32
748
 13
582
 23
553
 33
733
 70
0
  0
3DFACE
  5
181
100
AcDbEntity
  8
Melamina 15 Blanca
 62
0
100
AcDbFace
 10
582
 20
553
 30
733
 11
582
 21
553
 31
748
 12
15
 22
553
 32
748
 13
15
 23
553
 33
733
 70
0
  0
3DFACE
  5
182
100
AcDbEntity
  8
Melamina 15 Blanca
 62
0
100
AcDbFace
 10
15
 20
553
 30
733
 11
15
 21
553
 31
748
 12
15
 22
18
 32
748
 13
15
 23
18
 33
733
 70
0
  0
ENDBLK
  5
183
100
AcDbEntity
  8
Melamina 15 Blanca
100
AcDbBlockEnd
  0
BLOCK
  5
184
100
AcDbEntity
  8
Melamina 18 Nebrasca
100
AcDbBlockBegin
  2
ProyectoMuebleNiñas.LatDerPlacard.Cajón 1 [1] (1)
 70
     0
 10
8
 20
18
 30
379.5
  0
3DFACE
  5
185
100
AcDbEntity
  8
Melamina 18 Nebrasca
 62
0
100
AcDbFace
 10
8
 20
18
 30
379.5
 11
8
 21
18
 31
736.5
 12
592
 22
18
 32
736.5
 13
592
 23
18
 33
379.5
 70
0
  0
3DFACE
  5
186
100
AcDbEntity
  8
Melamina 18 Nebrasca
 62
0
100
AcDbFace
 10
8
 20
0
 30
379.5
 11
8
 21
0
 31
736.5
 12
592
 22
0
 32
736.5
 13
592
 23
0
 33
379.5
 70
0
  0
3DFACE
  5
187
100
AcDbEntity
  8
Melamina 18 Nebrasca
 62
0
100
AcDbFace
 10
8
 20
0
 30
379.5
 11
8
 21
18
 31
379.5
 12
8
 22
18
 32
736.5
 13
8
 23
0
 33
736.5
 70
0
  0
3DFACE
  5
188
100
AcDbEntity
  8
Melamina 18 Nebrasca
 62
0
100
AcDbFace
 10
8
 20
0
 30
736.5
 11
8
 21
18
 31
736.5
 12
592
 22
18
 32
736.5
 13
592
 23
0
 33
736.5
 70
0
  0
3DFACE
  5
189
100
AcDbEntity
  8
Melamina 18 Nebrasca
 62
0
100
AcDbFace
 10
592
 20
0
 30
736.5
 11
592
 21
18
 31
736.5
 12
592
 22
18
 32
379.5
 13
592
 23
0
 33
379.5
 70
0
  0
3DFACE
  5
18A
100
AcDbEntity
  8
Melamina 18 Nebrasca
 62
0
100
AcDbFace
 10
592
 20
0
 30
379.5
 11
592
 21
18
 31
379.5
 12
8
 22
18
 32
379.5
 13
8
 23
0
 33
379.5
 70
0
  0
ENDBLK
  5
18B
100
AcDbEntity
  8
Melamina 18 Nebrasca
100
AcDbBlockEnd
  0
BLOCK
  5
18C
100
AcDbEntity
  8
Melamina 18 Nebrasca
100
AcDbBlockBegin
  2
ProyectoMuebleNiñas.LatDerPlacard.Contra-Frente Cajón 1 [1]
 70
     0
 10
28
 20
18
 30
393
  0
3DFACE
  5
18D
100
AcDbEntity
  8
Melamina 18 Nebrasca
 62
0
100
AcDbFace
 10
28
 20
18
 30
393
 11
28
 21
18
 31
583
 12
569
 22
18
 32
583
 13
569
 23
18
 33
393
 70
0
  0
3DFACE
  5
18E
100
AcDbEntity
  8
Melamina 18 Nebrasca
 62
0
100
AcDbFace
 10
28
 20
36
 30
393
 11
28
 21
36
 31
583
 12
569
 22
36
 32
583
 13
569
 23
36
 33
393
 70
0
  0
3DFACE
  5
18F
100
AcDbEntity
  8
Melamina 18 Nebrasca
 62
0
100
AcDbFace
 10
28
 20
18
 30
393
 11
28
 21
36
 31
393
 12
28
 22
36
 32
583
 13
28
 23
18
 33
583
 70
0
  0
3DFACE
  5
190
100
AcDbEntity
  8
Melamina 18 Nebrasca
 62
0
100
AcDbFace
 10
28
 20
18
 30
583
 11
28
 21
36
 31
583
 12
569
 22
36
 32
583
 13
569
 23
18
 33
583
 70
0
  0
3DFACE
  5
191
100
AcDbEntity
  8
Melamina 18 Nebrasca
 62
0
100
AcDbFace
 10
569
 20
18
 30
583
 11
569
 21
36
 31
583
 12
569
 22
36
 32
393
 13
569
 23
18
 33
393
 70
0
  0
3DFACE
  5
192
100
AcDbEntity
  8
Melamina 18 Nebrasca
 62
0
100
AcDbFace
 10
569
 20
18
 30
393
 11
569
 21
36
 31
393
 12
28
 22
36
 32
393
 13
28
 23
18
 33
393
 70
0
  0
ENDBLK
  5
193
100
AcDbEntity
  8
Melamina 18 Nebrasca
100
AcDbBlockEnd
  0
BLOCK
  5
194
100
AcDbEntity
  8
Melamina 15 Blanca
100
AcDbBlockBegin
  2
ProyectoMuebleNiñas.LatDerPlacard.Lateral Izq Cajón 1 [1]
 70
     0
 10
28
 20
36
 30
583
  0
3DFACE
  5
195
100
AcDbEntity
  8
Melamina 15 Blanca
 62
0
100
AcDbFace
 10
28
 20
36
 30
583
 11
28
 21
36
 31
393
 12
28
 22
543
 32
393
 13
28
 23
543
 33
583
 70
0
  0
3DFACE
  5
196
100
AcDbEntity
  8
Melamina 15 Blanca
 62
0
100
AcDbFace
 10
43
 20
36
 30
583
 11
43
 21
36
 31
393
 12
43
 22
543
 32
393
 13
43
 23
543
 33
583
 70
0
  0
3DFACE
  5
197
100
AcDbEntity
  8
Melamina 15 Blanca
 62
0
100
AcDbFace
 10
28
 20
36
 30
583
 11
43
 21
36
 31
583
 12
43
 22
36
 32
393
 13
28
 23
36
 33
393
 70
0
  0
3DFACE
  5
198
100
AcDbEntity
  8
Melamina 15 Blanca
 62
0
100
AcDbFace
 10
28
 20
36
 30
393
 11
43
 21
36
 31
393
 12
43
 22
543
 32
393
 13
28
 23
543
 33
393
 70
0
  0
3DFACE
  5
199
100
AcDbEntity
  8
Melamina 15 Blanca
 62
0
100
AcDbFace
 10
28
 20
543
 30
393
 11
43
 21
543
 31
393
 12
43
 22
543
 32
583
 13
28
 23
543
 33
583
 70
0
  0
3DFACE
  5
19A
100
AcDbEntity
  8
Melamina 15 Blanca
 62
0
100
AcDbFace
 10
28
 20
543
 30
583
 11
43
 21
543
 31
583
 12
43
 22
36
 32
583
 13
28
 23
36
 33
583
 70
0
  0
ENDBLK
  5
19B
100
AcDbEntity
  8
Melamina 15 Blanca
100
AcDbBlockEnd
  0
BLOCK
  5
19C
100
AcDbEntity
  8
Melamina 15 Blanca
100
AcDbBlockBegin
  2
ProyectoMuebleNiñas.LatDerPlacard.Lateral Der Cajón 1 [1]
 70
     0
 10
569
 20
36
 30
393
  0
3DFACE
  5
19D
100
AcDbEntity
  8
Melamina 15 Blanca
 62
0
100
AcDbFace
 10
569
 20
36
 30
393
 11
569
 21
36
 31
583
 12
569
 22
543
 32
583
 13
569
 23
543
 33
393
 70
0
  0
3DFACE
  5
19E
100
AcDbEntity
  8
Melamina 15 Blanca
 62
0
100
AcDbFace
 10
554
 20
36
 30
393
 11
554
 21
36
 31
583
 12
554
 22
543
 32
583
 13
554
 23
543
 33
393
 70
0
  0
3DFACE
  5
19F
100
AcDbEntity
  8
Melamina 15 Blanca
 62
0
100
AcDbFace
 10
569
 20
36
 30
393
 11
554
 21
36
 31
393
 12
554
 22
36
 32
583
 13
569
 23
36
 33
583
 70
0
  0
3DFACE
  5
1A0
100
AcDbEntity
  8
Melamina 15 Blanca
 62
0
100
AcDbFace
 10
569
 20
36
 30
583
 11
554
 21
36
 31
583
 12
554
 22
543
 32
583
 13
569
 23
543
 33
583
 70
0
  0
3DFACE
  5
1A1
100
AcDbEntity
  8
Melamina 15 Blanca
 62
0
100
AcDbFace
 10
569
 20
543
 30
583
 11
554
 21
543
 31
583
 12
554
 22
543
 32
393
 13
569
 23
543
 33
393
 70
0
  0
3DFACE
  5
1A2
100
AcDbEntity
  8
Melamina 15 Blanca
 62
0
100
AcDbFace
 10
569
 20
543
 30
393
 11
554
 21
543
 31
393
 12
554
 22
36
 32
393
 13
569
 23
36
 33
393
 70
0
  0
ENDBLK
  5
1A3
100
AcDbEntity
  8
Melamina 15 Blanca
100
AcDbBlockEnd
  0
BLOCK
  5
1A4
100
AcDbEntity
  8
Melamina 15 Blanca
100
AcDbBlockBegin
  2
ProyectoMuebleNiñas.LatDerPlacard.Fondo Cajón 1 [1]
 70
     0
 10
43
 20
36
 30
393
  0
3DFACE
  5
1A5
100
AcDbEntity
  8
Melamina 15 Blanca
 62
0
100
AcDbFace
 10
43
 20
36
 30
393
 11
554
 21
36
 31
393
 12
554
 22
528
 32
393
 13
43
 23
528
 33
393
 70
0
  0
3DFACE
  5
1A6
100
AcDbEntity
  8
Melamina 15 Blanca
 62
0
100
AcDbFace
 10
43
 20
36
 30
408
 11
554
 21
36
 31
408
 12
554
 22
528
 32
408
 13
43
 23
528
 33
408
 70
0
  0
3DFACE
  5
1A7
100
AcDbEntity
  8
Melamina 15 Blanca
 62
0
100
AcDbFace
 10
43
 20
36
 30
393
 11
43
 21
36
 31
408
 12
554
 22
36
 32
408
 13
554
 23
36
 33
393
 70
0
  0
3DFACE
  5
1A8
100
AcDbEntity
  8
Melamina 15 Blanca
 62
0
100
AcDbFace
 10
554
 20
36
 30
393
 11
554
 21
36
 31
408
 12
554
 22
528
 32
408
 13
554
 23
528
 33
393
 70
0
  0
3DFACE
  5
1A9
100
AcDbEntity
  8
Melamina 15 Blanca
 62
0
100
AcDbFace
 10
554
 20
528
 30
393
 11
554
 21
528
 31
408
 12
43
 22
528
 32
408
 13
43
 23
528
 33
393
 70
0
  0
3DFACE
  5
1AA
100
AcDbEntity
  8
Melamina 15 Blanca
 62
0
100
AcDbFace
 10
43
 20
528
 30
393
 11
43
 21
528
 31
408
 12
43
 22
36
 32
408
 13
43
 23
36
 33
393
 70
0
  0
ENDBLK
  5
1AB
100
AcDbEntity
  8
Melamina 15 Blanca
100
AcDbBlockEnd
  0
BLOCK
  5
1AC
100
AcDbEntity
  8
Melamina 15 Blanca
100
AcDbBlockBegin
  2
ProyectoMuebleNiñas.LatDerPlacard.Trasera Cajón 1 [1]
 70
     0
 10
43
 20
543
 30
583
  0
3DFACE
  5
1AD
100
AcDbEntity
  8
Melamina 15 Blanca
 62
0
100
AcDbFace
 10
43
 20
543
 30
583
 11
43
 21
543
 31
393
 12
554
 22
543
 32
393
 13
554
 23
543
 33
583
 70
0
  0
3DFACE
  5
1AE
100
AcDbEntity
  8
Melamina 15 Blanca
 62
0
100
AcDbFace
 10
43
 20
528
 30
583
 11
43
 21
528
 31
393
 12
554
 22
528
 32
393
 13
554
 23
528
 33
583
 70
0
  0
3DFACE
  5
1AF
100
AcDbEntity
  8
Melamina 15 Blanca
 62
0
100
AcDbFace
 10
43
 20
543
 30
583
 11
43
 21
528
 31
583
 12
43
 22
528
 32
393
 13
43
 23
543
 33
393
 70
0
  0
3DFACE
  5
1B0
100
AcDbEntity
  8
Melamina 15 Blanca
 62
0
100
AcDbFace
 10
43
 20
543
 30
393
 11
43
 21
528
 31
393
 12
554
 22
528
 32
393
 13
554
 23
543
 33
393
 70
0
  0
3DFACE
  5
1B1
100
AcDbEntity
  8
Melamina 15 Blanca
 62
0
100
AcDbFace
 10
554
 20
543
 30
393
 11
554
 21
528
 31
393
 12
554
 22
528
 32
583
 13
554
 23
543
 33
583
 70
0
  0
3DFACE
  5
1B2
100
AcDbEntity
  8
Melamina 15 Blanca
 62
0
100
AcDbFace
 10
554
 20
543
 30
583
 11
554
 21
528
 31
583
 12
43
 22
528
 32
583
 13
43
 23
543
 33
583
 70
0
  0
ENDBLK
  5
1B3
100
AcDbEntity
  8
Melamina 15 Blanca
100
AcDbBlockEnd
  0
BLOCK
  5
1B4
100
AcDbEntity
  8
Melamina 18 Nebrasca
100
AcDbBlockBegin
  2
ProyectoMuebleNiñas.LatDerPlacard.Cajón 1 [2] (1)
 70
     0
 10
8
 20
18
 30
8
  0
3DFACE
  5
1B5
100
AcDbEntity
  8
Melamina 18 Nebrasca
 62
0
100
AcDbFace
 10
8
 20
18
 30
8
 11
8
 21
18
 31
371.5
 12
592
 22
18
 32
371.5
 13
592
 23
18
 33
8
 70
0
  0
3DFACE
  5
1B6
100
AcDbEntity
  8
Melamina 18 Nebrasca
 62
0
100
AcDbFace
 10
8
 20
0
 30
8
 11
8
 21
0
 31
371.5
 12
592
 22
0
 32
371.5
 13
592
 23
0
 33
8
 70
0
  0
3DFACE
  5
1B7
100
AcDbEntity
  8
Melamina 18 Nebrasca
 62
0
100
AcDbFace
 10
8
 20
0
 30
8
 11
8
 21
18
 31
8
 12
8
 22
18
 32
371.5
 13
8
 23
0
 33
371.5
 70
0
  0
3DFACE
  5
1B8
100
AcDbEntity
  8
Melamina 18 Nebrasca
 62
0
100
AcDbFace
 10
8
 20
0
 30
371.5
 11
8
 21
18
 31
371.5
 12
592
 22
18
 32
371.5
 13
592
 23
0
 33
371.5
 70
0
  0
3DFACE
  5
1B9
100
AcDbEntity
  8
Melamina 18 Nebrasca
 62
0
100
AcDbFace
 10
592
 20
0
 30
371.5
 11
592
 21
18
 31
371.5
 12
592
 22
18
 32
8
 13
592
 23
0
 33
8
 70
0
  0
3DFACE
  5
1BA
100
AcDbEntity
  8
Melamina 18 Nebrasca
 62
0
100
AcDbFace
 10
592
 20
0
 30
8
 11
592
 21
18
 31
8
 12
8
 22
18
 32
8
 13
8
 23
0
 33
8
 70
0
  0
ENDBLK
  5
1BB
100
AcDbEntity
  8
Melamina 18 Nebrasca
100
AcDbBlockEnd
  0
BLOCK
  5
1BC
100
AcDbEntity
  8
Melamina 18 Nebrasca
100
AcDbBlockBegin
  2
ProyectoMuebleNiñas.LatDerPlacard.Contra-Frente Cajón 1 [2]
 70
     0
 10
28
 20
18
 30
28
  0
3DFACE
  5
1BD
100
AcDbEntity
  8
Melamina 18 Nebrasca
 62
0
100
AcDbFace
 10
28
 20
18
 30
28
 11
28
 21
18
 31
218
 12
569
 22
18
 32
218
 13
569
 23
18
 33
28
 70
0
  0
3DFACE
  5
1BE
100
AcDbEntity
  8
Melamina 18 Nebrasca
 62
0
100
AcDbFace
 10
28
 20
36
 30
28
 11
28
 21
36
 31
218
 12
569
 22
36
 32
218
 13
569
 23
36
 33
28
 70
0
  0
3DFACE
  5
1BF
100
AcDbEntity
  8
Melamina 18 Nebrasca
 62
0
100
AcDbFace
 10
28
 20
18
 30
28
 11
28
 21
36
 31
28
 12
28
 22
36
 32
218
 13
28
 23
18
 33
218
 70
0
  0
3DFACE
  5
1C0
100
AcDbEntity
  8
Melamina 18 Nebrasca
 62
0
100
AcDbFace
 10
28
 20
18
 30
218
 11
28
 21
36
 31
218
 12
569
 22
36
 32
218
 13
569
 23
18
 33
218
 70
0
  0
3DFACE
  5
1C1
100
AcDbEntity
  8
Melamina 18 Nebrasca
 62
0
100
AcDbFace
 10
569
 20
18
 30
218
 11
569
 21
36
 31
218
 12
569
 22
36
 32
28
 13
569
 23
18
 33
28
 70
0
  0
3DFACE
  5
1C2
100
AcDbEntity
  8
Melamina 18 Nebrasca
 62
0
100
AcDbFace
 10
569
 20
18
 30
28
 11
569
 21
36
 31
28
 12
28
 22
36
 32
28
 13
28
 23
18
 33
28
 70
0
  0
ENDBLK
  5
1C3
100
AcDbEntity
  8
Melamina 18 Nebrasca
100
AcDbBlockEnd
  0
BLOCK
  5
1C4
100
AcDbEntity
  8
Melamina 15 Blanca
100
AcDbBlockBegin
  2
ProyectoMuebleNiñas.LatDerPlacard.Lateral Izq Cajón 1 [2]
 70
     0
 10
28
 20
36
 30
218
  0
3DFACE
  5
1C5
100
AcDbEntity
  8
Melamina 15 Blanca
 62
0
100
AcDbFace
 10
28
 20
36
 30
218
 11
28
 21
36
 31
28
 12
28
 22
543
 32
28
 13
28
 23
543
 33
218
 70
0
  0
3DFACE
  5
1C6
100
AcDbEntity
  8
Melamina 15 Blanca
 62
0
100
AcDbFace
 10
43
 20
36
 30
218
 11
43
 21
36
 31
28
 12
43
 22
543
 32
28
 13
43
 23
543
 33
218
 70
0
  0
3DFACE
  5
1C7
100
AcDbEntity
  8
Melamina 15 Blanca
 62
0
100
AcDbFace
 10
28
 20
36
 30
218
 11
43
 21
36
 31
218
 12
43
 22
36
 32
28
 13
28
 23
36
 33
28
 70
0
  0
3DFACE
  5
1C8
100
AcDbEntity
  8
Melamina 15 Blanca
 62
0
100
AcDbFace
 10
28
 20
36
 30
28
 11
43
 21
36
 31
28
 12
43
 22
543
 32
28
 13
28
 23
543
 33
28
 70
0
  0
3DFACE
  5
1C9
100
AcDbEntity
  8
Melamina 15 Blanca
 62
0
100
AcDbFace
 10
28
 20
543
 30
28
 11
43
 21
543
 31
28
 12
43
 22
543
 32
218
 13
28
 23
543
 33
218
 70
0
  0
3DFACE
  5
1CA
100
AcDbEntity
  8
Melamina 15 Blanca
 62
0
100
AcDbFace
 10
28
 20
543
 30
218
 11
43
 21
543
 31
218
 12
43
 22
36
 32
218
 13
28
 23
36
 33
218
 70
0
  0
ENDBLK
  5
1CB
100
AcDbEntity
  8
Melamina 15 Blanca
100
AcDbBlockEnd
  0
BLOCK
  5
1CC
100
AcDbEntity
  8
Melamina 15 Blanca
100
AcDbBlockBegin
  2
ProyectoMuebleNiñas.LatDerPlacard.Lateral Der Cajón 1 [2]
 70
     0
 10
569
 20
36
 30
28
  0
3DFACE
  5
1CD
100
AcDbEntity
  8
Melamina 15 Blanca
 62
0
100
AcDbFace
 10
569
 20
36
 30
28
 11
569
 21
36
 31
218
 12
569
 22
543
 32
218
 13
569
 23
543
 33
28
 70
0
  0
3DFACE
  5
1CE
100
AcDbEntity
  8
Melamina 15 Blanca
 62
0
100
AcDbFace
 10
554
 20
36
 30
28
 11
554
 21
36
 31
218
 12
554
 22
543
 32
218
 13
554
 23
543
 33
28
 70
0
  0
3DFACE
  5
1CF
100
AcDbEntity
  8
Melamina 15 Blanca
 62
0
100
AcDbFace
 10
569
 20
36
 30
28
 11
554
 21
36
 31
28
 12
554
 22
36
 32
218
 13
569
 23
36
 33
218
 70
0
  0
3DFACE
  5
1D0
100
AcDbEntity
  8
Melamina 15 Blanca
 62
0
100
AcDbFace
 10
569
 20
36
 30
218
 11
554
 21
36
 31
218
 12
554
 22
543
 32
218
 13
569
 23
543
 33
218
 70
0
  0
3DFACE
  5
1D1
100
AcDbEntity
  8
Melamina 15 Blanca
 62
0
100
AcDbFace
 10
569
 20
543
 30
218
 11
554
 21
543
 31
218
 12
554
 22
543
 32
28
 13
569
 23
543
 33
28
 70
0
  0
3DFACE
  5
1D2
100
AcDbEntity
  8
Melamina 15 Blanca
 62
0
100
AcDbFace
 10
569
 20
543
 30
28
 11
554
 21
543
 31
28
 12
554
 22
36
 32
28
 13
569
 23
36
 33
28
 70
0
  0
ENDBLK
  5
1D3
100
AcDbEntity
  8
Melamina 15 Blanca
100
AcDbBlockEnd
  0
BLOCK
  5
1D4
100
AcDbEntity
  8
Melamina 15 Blanca
100
AcDbBlockBegin
  2
ProyectoMuebleNiñas.LatDerPlacard.Fondo Cajón 1 [2]
 70
     0
 10
43
 20
36
 30
28
  0
3DFACE
  5
1D5
100
AcDbEntity
  8
Melamina 15 Blanca
 62
0
100
AcDbFace
 10
43
 20
36
 30
28
 11
554
 21
36
 31
28
 12
554
 22
525
 32
28
 13
43
 23
525
 33
28
 70
0
  0
3DFACE
  5
1D6
100
AcDbEntity
  8
Melamina 15 Blanca
 62
0
100
AcDbFace
 10
43
 20
36
 30
43
 11
554
 21
36
 31
43
 12
554
 22
525
 32
43
 13
43
 23
525
 33
43
 70
0
  0
3DFACE
  5
1D7
100
AcDbEntity
  8
Melamina 15 Blanca
 62
0
100
AcDbFace
 10
43
 20
36
 30
28
 11
43
 21
36
 31
43
 12
554
 22
36
 32
43
 13
554
 23
36
 33
28
 70
0
  0
3DFACE
  5
1D8
100
AcDbEntity
  8
Melamina 15 Blanca
 62
0
100
AcDbFace
 10
554
 20
36
 30
28
 11
554
 21
36
 31
43
 12
554
 22
525
 32
43
 13
554
 23
525
 33
28
 70
0
  0
3DFACE
  5
1D9
100
AcDbEntity
  8
Melamina 15 Blanca
 62
0
100
AcDbFace
 10
554
 20
525
 30
28
 11
554
 21
525
 31
43
 12
43
 22
525
 32
43
 13
43
 23
525
 33
28
 70
0
  0
3DFACE
  5
1DA
100
AcDbEntity
  8
Melamina 15 Blanca
 62
0
100
AcDbFace
 10
43
 20
525
 30
28
 11
43
 21
525
 31
43
 12
43
 22
36
 32
43
 13
43
 23
36
 33
28
 70
0
  0
ENDBLK
  5
1DB
100
AcDbEntity
  8
Melamina 15 Blanca
100
AcDbBlockEnd
  0
BLOCK
  5
1DC
100
AcDbEntity
  8
Melamina 18 Blanca
100
AcDbBlockBegin
  2
ProyectoMuebleNiñas.LatDerPlacard.Trasera Cajón 1 [2]
 70
     0
 10
43
 20
543
 30
218
  0
3DFACE
  5
1DD
100
AcDbEntity
  8
Melamina 18 Blanca
 62
0
100
AcDbFace
 10
43
 20
543
 30
218
 11
43
 21
543
 31
28
 12
554
 22
543
 32
28
 13
554
 23
543
 33
218
 70
0
  0
3DFACE
  5
1DE
100
AcDbEntity
  8
Melamina 18 Blanca
 62
0
100
AcDbFace
 10
43
 20
525
 30
218
 11
43
 21
525
 31
28
 12
554
 22
525
 32
28
 13
554
 23
525
 33
218
 70
0
  0
3DFACE
  5
1DF
100
AcDbEntity
  8
Melamina 18 Blanca
 62
0
100
AcDbFace
 10
43
 20
543
 30
218
 11
43
 21
525
 31
218
 12
43
 22
525
 32
28
 13
43
 23
543
 33
28
 70
0
  0
3DFACE
  5
1E0
100
AcDbEntity
  8
Melamina 18 Blanca
 62
0
100
AcDbFace
 10
43
 20
543
 30
28
 11
43
 21
525
 31
28
 12
554
 22
525
 32
28
 13
554
 23
543
 33
28
 70
0
  0
3DFACE
  5
1E1
100
AcDbEntity
  8
Melamina 18 Blanca
 62
0
100
AcDbFace
 10
554
 20
543
 30
28
 11
554
 21
525
 31
28
 12
554
 22
525
 32
218
 13
554
 23
543
 33
218
 70
0
  0
3DFACE
  5
1E2
100
AcDbEntity
  8
Melamina 18 Blanca
 62
0
100
AcDbFace
 10
554
 20
543
 30
218
 11
554
 21
525
 31
218
 12
43
 22
525
 32
218
 13
43
 23
543
 33
218
 70
0
  0
ENDBLK
  5
1E3
100
AcDbEntity
  8
Melamina 18 Blanca
100
AcDbBlockEnd
  0
BLOCK
  5
1E4
100
AcDbEntity
  8
Melamina 18 Nebrasca
100
AcDbBlockBegin
  2
ProyectoMuebleNiñas.LatDerPlacard.Puerta 1 (unica) [1]
 70
     0
 10
8
 20
0
 30
2290
  0
3DFACE
  5
1E5
100
AcDbEntity
  8
Melamina 18 Nebrasca
 62
0
100
AcDbFace
 10
8
 20
0
 30
2290
 11
8
 21
0
 31
744.5
 12
592
 22
0
 32
744.5
 13
592
 23
0
 33
2290
 70
0
  0
3DFACE
  5
1E6
100
AcDbEntity
  8
Melamina 18 Nebrasca
 62
0
100
AcDbFace
 10
8
 20
18
 30
2290
 11
8
 21
18
 31
744.5
 12
592
 22
18
 32
744.5
 13
592
 23
18
 33
2290
 70
0
  0
3DFACE
  5
1E7
100
AcDbEntity
  8
Melamina 18 Nebrasca
 62
0
100
AcDbFace
 10
8
 20
18
 30
2290
 11
8
 21
0
 31
2290
 12
8
 22
0
 32
744.5
 13
8
 23
18
 33
744.5
 70
0
  0
3DFACE
  5
1E8
100
AcDbEntity
  8
Melamina 18 Nebrasca
 62
0
100
AcDbFace
 10
8
 20
18
 30
744.5
 11
8
 21
0
 31
744.5
 12
592
 22
0
 32
744.5
 13
592
 23
18
 33
744.5
 70
0
  0
3DFACE
  5
1E9
100
AcDbEntity
  8
Melamina 18 Nebrasca
 62
0
100
AcDbFace
 10
592
 20
18
 30
744.5
 11
592
 21
0
 31
744.5
 12
592
 22
0
 32
2290
 13
592
 23
18
 33
2290
 70
0
  0
3DFACE
  5
1EA
100
AcDbEntity
  8
Melamina 18 Nebrasca
 62
0
100
AcDbFace
 10
592
 20
18
 30
2290
 11
592
 21
0
 31
2290
 12
8
 22
0
 32
2290
 13
8
 23
18
 33
2290
 70
0
  0
ENDBLK
  5
1EB
100
AcDbEntity
  8
Melamina 18 Nebrasca
100
AcDbBlockEnd
  0
BLOCK
  5
1EC
100
AcDbEntity
  8
0
100
AcDbBlockBegin
  2
ProyectoMuebleNiñas.LatIzqPlacard
 70
     0
 10
0
 20
0
 30
0
  0
INSERT
  5
1ED
100
AcDbEntity
  8
Melamina 18 Nebrasca
100
AcDbBlockReference
  2
ProyectoMuebleNiñas.LatIzqPlacard.Suelo
 10
0
 20
0
 30
0
210
0
220
0
230
1
  0
INSERT
  5
1EE
100
AcDbEntity
  8
Melamina 18 Nebrasca
100
AcDbBlockReference
  2
ProyectoMuebleNiñas.LatIzqPlacard.Techo
 10
625
 20
0
 30
2300
210
0
220
0
230
1
  0
INSERT
  5
1EF
100
AcDbEntity
  8
Melamina 15 Blanca
100
AcDbBlockReference
  2
ProyectoMuebleNiñas.LatIzqPlacard.Lateral Derecho
 10
625
 20
80
 30
18
210
0
220
0
230
1
  0
INSERT
  5
1F0
100
AcDbEntity
  8
Melamina 15 Blanca
100
AcDbBlockReference
  2
ProyectoMuebleNiñas.LatIzqPlacard.Trasera
 10
18
 20
550
 30
2282
210
0
220
0
230
1
  0
INSERT
  5
1F1
100
AcDbEntity
  8
Melamina 18 Nebrasca
100
AcDbBlockReference
  2
ProyectoMuebleNiñas.LatIzqPlacard.Lateral Izquierdo
 10
0
 20
0
 30
2282
210
0
220
0
230
1
  0
INSERT
  5
1F2
100
AcDbEntity
  8
Melamina 18 Blanca
100
AcDbBlockReference
  2
ProyectoMuebleNiñas.LatIzqPlacard.Estante Fijo [1]
 10
18
 20
80
 30
518
210
0
220
0
230
1
  0
INSERT
  5
1F3
100
AcDbEntity
  8
Melamina 18 Blanca
100
AcDbBlockReference
  2
ProyectoMuebleNiñas.LatIzqPlacard.Estante Fijo [2]
 10
18
 20
80
 30
1136
210
0
220
0
230
1
  0
ENDBLK
  5
1F4
100
AcDbEntity
  8
0
100
AcDbBlockEnd
  0
BLOCK
  5
1F5
100
AcDbEntity
  8
Melamina 18 Nebrasca
100
AcDbBlockBegin
  2
ProyectoMuebleNiñas.LatIzqPlacard.Suelo
 70
     0
 10
0
 20
0
 30
0
  0
3DFACE
  5
1F6
100
AcDbEntity
  8
Melamina 18 Nebrasca
 62
0
100
AcDbFace
 10
0
 20
0
 30
0
 11
0
 21
550
 31
0
 12
625
 22
550
 32
0
 13
625
 23
0
 33
0
 70
0
  0
3DFACE
  5
1F7
100
AcDbEntity
  8
Melamina 18 Nebrasca
 62
0
100
AcDbFace
 10
0
 20
0
 30
18
 11
0
 21
550
 31
18
 12
625
 22
550
 32
18
 13
625
 23
0
 33
18
 70
0
  0
3DFACE
  5
1F8
100
AcDbEntity
  8
Melamina 18 Nebrasca
 62
0
100
AcDbFace
 10
0
 20
0
 30
18
 11
0
 21
550
 31
18
 12
0
 22
550
 32
0
 13
0
 23
0
 33
0
 70
0
  0
3DFACE
  5
1F9
100
AcDbEntity
  8
Melamina 18 Nebrasca
 62
0
100
AcDbFace
 10
0
 20
550
 30
18
 11
625
 21
550
 31
18
 12
625
 22
550
 32
0
 13
0
 23
550
 33
0
 70
0
  0
3DFACE
  5
1FA
100
AcDbEntity
  8
Melamina 18 Nebrasca
 62
0
100
AcDbFace
 10
625
 20
550
 30
18
 11
625
 21
0
 31
18
 12
625
 22
0
 32
0
 13
625
 23
550
 33
0
 70
0
  0
3DFACE
  5
1FB
100
AcDbEntity
  8
Melamina 18 Nebrasca
 62
0
100
AcDbFace
 10
625
 20
0
 30
18
 11
0
 21
0
 31
18
 12
0
 22
0
 32
0
 13
625
 23
0
 33
0
 70
0
  0
ENDBLK
  5
1FC
100
AcDbEntity
  8
Melamina 18 Nebrasca
100
AcDbBlockEnd
  0
BLOCK
  5
1FD
100
AcDbEntity
  8
Melamina 18 Nebrasca
100
AcDbBlockBegin
  2
ProyectoMuebleNiñas.LatIzqPlacard.Techo
 70
     0
 10
625
 20
0
 30
2300
  0
3DFACE
  5
1FE
100
AcDbEntity
  8
Melamina 18 Nebrasca
 62
0
100
AcDbFace
 10
625
 20
0
 30
2300
 11
625
 21
550
 31
2300
 12
0
 22
550
 32
2300
 13
0
 23
0
 33
2300
 70
0
  0
3DFACE
  5
1FF
100
AcDbEntity
  8
Melamina 18 Nebrasca
 62
0
100
AcDbFace
 10
625
 20
0
 30
2282
 11
625
 21
550
 31
2282
 12
0
 22
550
 32
2282
 13
0
 23
0
 33
2282
 70
0
  0
3DFACE
  5
200
100
AcDbEntity
  8
Melamina 18 Nebrasca
 62
0
100
AcDbFace
 10
625
 20
0
 30
2282
 11
625
 21
550
 31
2282
 12
625
 22
550
 32
2300
 13
625
 23
0
 33
2300
 70
0
  0
3DFACE
  5
201
100
AcDbEntity
  8
Melamina 18 Nebrasca
 62
0
100
AcDbFace
 10
625
 20
550
 30
2282
 11
0
 21
550
 31
2282
 12
0
 22
550
 32
2300
 13
625
 23
550
 33
2300
 70
0
  0
3DFACE
  5
202
100
AcDbEntity
  8
Melamina 18 Nebrasca
 62
0
100
AcDbFace
 10
0
 20
550
 30
2282
 11
0
 21
0
 31
2282
 12
0
 22
0
 32
2300
 13
0
 23
550
 33
2300
 70
0
  0
3DFACE
  5
203
100
AcDbEntity
  8
Melamina 18 Nebrasca
 62
0
100
AcDbFace
 10
0
 20
0
 30
2282
 11
625
 21
0
 31
2282
 12
625
 22
0
 32
2300
 13
0
 23
0
 33
2300
 70
0
  0
ENDBLK
  5
204
100
AcDbEntity
  8
Melamina 18 Nebrasca
100
AcDbBlockEnd
  0
BLOCK
  5
205
100
AcDbEntity
  8
Melamina 15 Blanca
100
AcDbBlockBegin
  2
ProyectoMuebleNiñas.LatIzqPlacard.Lateral Derecho
 70
     0
 10
625
 20
80
 30
18
  0
3DFACE
  5
206
100
AcDbEntity
  8
Melamina 15 Blanca
 62
0
100
AcDbFace
 10
625
 20
80
 30
18
 11
625
 21
550
 31
18
 12
625
 22
550
 32
2282
 13
625
 23
80
 33
2282
 70
0
  0
3DFACE
  5
207
100
AcDbEntity
  8
Melamina 15 Blanca
 62
0
100
AcDbFace
 10
610
 20
80
 30
18
 11
610
 21
550
 31
18
 12
610
 22
550
 32
2282
 13
610
 23
80
 33
2282
 70
0
  0
3DFACE
  5
208
100
AcDbEntity
  8
Melamina 15 Blanca
 62
0
100
AcDbFace
 10
610
 20
80
 30
18
 11
610
 21
550
 31
18
 12
625
 22
550
 32
18
 13
625
 23
80
 33
18
 70
0
  0
3DFACE
  5
209
100
AcDbEntity
  8
Melamina 15 Blanca
 62
0
100
AcDbFace
 10
610
 20
550
 30
18
 11
610
 21
550
 31
2282
 12
625
 22
550
 32
2282
 13
625
 23
550
 33
18
 70
0
  0
3DFACE
  5
20A
100
AcDbEntity
  8
Melamina 15 Blanca
 62
0
100
AcDbFace
 10
610
 20
550
 30
2282
 11
610
 21
80
 31
2282
 12
625
 22
80
 32
2282
 13
625
 23
550
 33
2282
 70
0
  0
3DFACE
  5
20B
100
AcDbEntity
  8
Melamina 15 Blanca
 62
0
100
AcDbFace
 10
610
 20
80
 30
2282
 11
610
 21
80
 31
18
 12
625
 22
80
 32
18
 13
625
 23
80
 33
2282
 70
0
  0
ENDBLK
  5
20C
100
AcDbEntity
  8
Melamina 15 Blanca
100
AcDbBlockEnd
  0
BLOCK
  5
20D
100
AcDbEntity
  8
Melamina 15 Blanca
100
AcDbBlockBegin
  2
ProyectoMuebleNiñas.LatIzqPlacard.Trasera
 70
     0
 10
18
 20
550
 30
2282
  0
3DFACE
  5
20E
100
AcDbEntity
  8
Melamina 15 Blanca
 62
0
100
AcDbFace
 10
18
 20
550
 30
2282
 11
610
 21
550
 31
2282
 12
610
 22
550
 32
18
 13
18
 23
550
 33
18
 70
0
  0
3DFACE
  5
20F
100
AcDbEntity
  8
Melamina 15 Blanca
 62
0
100
AcDbFace
 10
18
 20
535
 30
2282
 11
610
 21
535
 31
2282
 12
610
 22
535
 32
18
 13
18
 23
535
 33
18
 70
0
  0
3DFACE
  5
210
100
AcDbEntity
  8
Melamina 15 Blanca
 62
0
100
AcDbFace
 10
18
 20
535
 30
2282
 11
610
 21
535
 31
2282
 12
610
 22
550
 32
2282
 13
18
 23
550
 33
2282
 70
0
  0
3DFACE
  5
211
100
AcDbEntity
  8
Melamina 15 Blanca
 62
0
100
AcDbFace
 10
610
 20
535
 30
2282
 11
610
 21
535
 31
18
 12
610
 22
550
 32
18
 13
610
 23
550
 33
2282
 70
0
  0
3DFACE
  5
212
100
AcDbEntity
  8
Melamina 15 Blanca
 62
0
100
AcDbFace
 10
610
 20
535
 30
18
 11
18
 21
535
 31
18
 12
18
 22
550
 32
18
 13
610
 23
550
 33
18
 70
0
  0
3DFACE
  5
213
100
AcDbEntity
  8
Melamina 15 Blanca
 62
0
100
AcDbFace
 10
18
 20
535
 30
18
 11
18
 21
535
 31
2282
 12
18
 22
550
 32
2282
 13
18
 23
550
 33
18
 70
0
  0
ENDBLK
  5
214
100
AcDbEntity
  8
Melamina 15 Blanca
100
AcDbBlockEnd
  0
BLOCK
  5
215
100
AcDbEntity
  8
Melamina 18 Nebrasca
100
AcDbBlockBegin
  2
ProyectoMuebleNiñas.LatIzqPlacard.Lateral Izquierdo
 70
     0
 10
0
 20
0
 30
2282
  0
3DFACE
  5
216
100
AcDbEntity
  8
Melamina 18 Nebrasca
 62
0
100
AcDbFace
 10
0
 20
0
 30
2282
 11
0
 21
550
 31
2282
 12
0
 22
550
 32
18
 13
0
 23
0
 33
18
 70
0
  0
3DFACE
  5
217
100
AcDbEntity
  8
Melamina 18 Nebrasca
 62
0
100
AcDbFace
 10
18
 20
0
 30
2282
 11
18
 21
550
 31
2282
 12
18
 22
550
 32
18
 13
18
 23
0
 33
18
 70
0
  0
3DFACE
  5
218
100
AcDbEntity
  8
Melamina 18 Nebrasca
 62
0
100
AcDbFace
 10
18
 20
0
 30
2282
 11
18
 21
550
 31
2282
 12
0
 22
550
 32
2282
 13
0
 23
0
 33
2282
 70
0
  0
3DFACE
  5
219
100
AcDbEntity
  8
Melamina 18 Nebrasca
 62
0
100
AcDbFace
 10
18
 20
550
 30
2282
 11
18
 21
550
 31
18
 12
0
 22
550
 32
18
 13
0
 23
550
 33
2282
 70
0
  0
3DFACE
  5
21A
100
AcDbEntity
  8
Melamina 18 Nebrasca
 62
0
100
AcDbFace
 10
18
 20
550
 30
18
 11
18
 21
0
 31
18
 12
0
 22
0
 32
18
 13
0
 23
550
 33
18
 70
0
  0
3DFACE
  5
21B
100
AcDbEntity
  8
Melamina 18 Nebrasca
 62
0
100
AcDbFace
 10
18
 20
0
 30
18
 11
18
 21
0
 31
2282
 12
0
 22
0
 32
2282
 13
0
 23
0
 33
18
 70
0
  0
ENDBLK
  5
21C
100
AcDbEntity
  8
Melamina 18 Nebrasca
100
AcDbBlockEnd
  0
BLOCK
  5
21D
100
AcDbEntity
  8
Melamina 18 Blanca
100
AcDbBlockBegin
  2
ProyectoMuebleNiñas.LatIzqPlacard.Estante Fijo [1]
 70
     0
 10
18
 20
80
 30
518
  0
3DFACE
  5
21E
100
AcDbEntity
  8
Melamina 18 Blanca
 62
0
100
AcDbFace
 10
18
 20
80
 30
518
 11
610
 21
80
 31
518
 12
610
 22
535
 32
518
 13
18
 23
535
 33
518
 70
0
  0
3DFACE
  5
21F
100
AcDbEntity
  8
Melamina 18 Blanca
 62
0
100
AcDbFace
 10
18
 20
80
 30
536
 11
610
 21
80
 31
536
 12
610
 22
535
 32
536
 13
18
 23
535
 33
536
 70
0
  0
3DFACE
  5
220
100
AcDbEntity
  8
Melamina 18 Blanca
 62
0
100
AcDbFace
 10
18
 20
80
 30
518
 11
18
 21
80
 31
536
 12
610
 22
80
 32
536
 13
610
 23
80
 33
518
 70
0
  0
3DFACE
  5
221
100
AcDbEntity
  8
Melamina 18 Blanca
 62
0
100
AcDbFace
 10
610
 20
80
 30
518
 11
610
 21
80
 31
536
 12
610
 22
535
 32
536
 13
610
 23
535
 33
518
 70
0
  0
3DFACE
  5
222
100
AcDbEntity
  8
Melamina 18 Blanca
 62
0
100
AcDbFace
 10
610
 20
535
 30
518
 11
610
 21
535
 31
536
 12
18
 22
535
 32
536
 13
18
 23
535
 33
518
 70
0
  0
3DFACE
  5
223
100
AcDbEntity
  8
Melamina 18 Blanca
 62
0
100
AcDbFace
 10
18
 20
535
 30
518
 11
18
 21
535
 31
536
 12
18
 22
80
 32
536
 13
18
 23
80
 33
518
 70
0
  0
ENDBLK
  5
224
100
AcDbEntity
  8
Melamina 18 Blanca
100
AcDbBlockEnd
  0
BLOCK
  5
225
100
AcDbEntity
  8
Melamina 18 Blanca
100
AcDbBlockBegin
  2
ProyectoMuebleNiñas.LatIzqPlacard.Estante Fijo [2]
 70
     0
 10
18
 20
80
 30
1136
  0
3DFACE
  5
226
100
AcDbEntity
  8
Melamina 18 Blanca
 62
0
100
AcDbFace
 10
18
 20
80
 30
1136
 11
610
 21
80
 31
1136
 12
610
 22
535
 32
1136
 13
18
 23
535
 33
1136
 70
0
  0
3DFACE
  5
227
100
AcDbEntity
  8
Melamina 18 Blanca
 62
0
100
AcDbFace
 10
18
 20
80
 30
1154
 11
610
 21
80
 31
1154
 12
610
 22
535
 32
1154
 13
18
 23
535
 33
1154
 70
0
  0
3DFACE
  5
228
100
AcDbEntity
  8
Melamina 18 Blanca
 62
0
100
AcDbFace
 10
18
 20
80
 30
1136
 11
18
 21
80
 31
1154
 12
610
 22
80
 32
1154
 13
610
 23
80
 33
1136
 70
0
  0
3DFACE
  5
229
100
AcDbEntity
  8
Melamina 18 Blanca
 62
0
100
AcDbFace
 10
610
 20
80
 30
1136
 11
610
 21
80
 31
1154
 12
610
 22
535
 32
1154
 13
610
 23
535
 33
1136
 70
0
  0
3DFACE
  5
22A
100
AcDbEntity
  8
Melamina 18 Blanca
 62
0
100
AcDbFace
 10
610
 20
535
 30
1136
 11
610
 21
535
 31
1154
 12
18
 22
535
 32
1154
 13
18
 23
535
 33
1136
 70
0
  0
3DFACE
  5
22B
100
AcDbEntity
  8
Melamina 18 Blanca
 62
0
100
AcDbFace
 10
18
 20
535
 30
1136
 11
18
 21
535
 31
1154
 12
18
 22
80
 32
1154
 13
18
 23
80
 33
1136
 70
0
  0
ENDBLK
  5
22C
100
AcDbEntity
  8
Melamina 18 Blanca
100
AcDbBlockEnd
  0
BLOCK
  5
22D
100
AcDbEntity
  8
0
100
AcDbBlockBegin
  2
ProyectoMuebleNiñas.PuertasPlacard[1]
 70
     0
 10
0
 20
0
 30
0
  0
INSERT
  5
22E
100
AcDbEntity
  8
Melamina 18 Nebrasca
100
AcDbBlockReference
  2
ProyectoMuebleNiñas.PuertasPlacard[1].Puerta 1 (corredera) [1] (1)
 10
634
 20
43
 30
2256
210
0
220
0
230
1
  0
INSERT
  5
22F
100
AcDbEntity
  8
Melamina 18 Nebrasca
100
AcDbBlockReference
  2
ProyectoMuebleNiñas.PuertasPlacard[1].Puerta 1 (corredera) [1] (2)
 10
44
 20
62
 30
2256
210
0
220
0
230
1
  0
ENDBLK
  5
230
100
AcDbEntity
  8
0
100
AcDbBlockEnd
  0
BLOCK
  5
231
100
AcDbEntity
  8
Melamina 18 Nebrasca
100
AcDbBlockBegin
  2
ProyectoMuebleNiñas.PuertasPlacard[1].Puerta 1 (corredera) [1] (1)
 70
     0
 10
634
 20
43
 30
2256
  0
3DFACE
  5
232
100
AcDbEntity
  8
Melamina 18 Nebrasca
 62
0
100
AcDbFace
 10
634
 20
43
 30
2256
 11
1224
 21
43
 31
2256
 12
1224
 22
43
 32
18
 13
634
 23
43
 33
18
 70
0
  0
3DFACE
  5
233
100
AcDbEntity
  8
Melamina 18 Nebrasca
 62
0
100
AcDbFace
 10
634
 20
61
 30
18
 11
1224
 21
61
 31
18
 12
1224
 22
61
 32
2256
 13
634
 23
61
 33
2256
 70
0
  0
3DFACE
  5
234
100
AcDbEntity
  8
Melamina 18 Nebrasca
 62
0
100
AcDbFace
 10
1224
 20
61
 30
2256
 11
1224
 21
43
 31
2256
 12
634
 22
43
 32
2256
 13
634
 23
61
 33
2256
 70
0
  0
3DFACE
  5
235
100
AcDbEntity
  8
Melamina 18 Nebrasca
 62
0
100
AcDbFace
 10
1224
 20
61
 30
18
 11
1224
 21
43
 31
18
 12
1224
 22
43
 32
2256
 13
1224
 23
61
 33
2256
 70
0
  0
3DFACE
  5
236
100
AcDbEntity
  8
Melamina 18 Nebrasca
 62
0
100
AcDbFace
 10
634
 20
43
 30
18
 11
1224
 21
43
 31
18
 12
1224
 22
61
 32
18
 13
634
 23
61
 33
18
 70
0
  0
3DFACE
  5
237
100
AcDbEntity
  8
Melamina 18 Nebrasca
 62
0
100
AcDbFace
 10
634
 20
43
 30
2256
 11
634
 21
61
 31
2256
 12
634
 22
61
 32
18
 13
634
 23
43
 33
18
 70
0
  0
ENDBLK
  5
238
100
AcDbEntity
  8
Melamina 18 Nebrasca
100
AcDbBlockEnd
  0
BLOCK
  5
239
100
AcDbEntity
  8
Melamina 18 Nebrasca
100
AcDbBlockBegin
  2
ProyectoMuebleNiñas.PuertasPlacard[1].Puerta 1 (corredera) [1] (2)
 70
     0
 10
44
 20
62
 30
2256
  0
3DFACE
  5
23A
100
AcDbEntity
  8
Melamina 18 Nebrasca
 62
0
100
AcDbFace
 10
44
 20
62
 30
2256
 11
634
 21
62
 31
2256
 12
634
 22
62
 32
18
 13
44
 23
62
 33
18
 70
0
  0
3DFACE
  5
23B
100
AcDbEntity
  8
Melamina 18 Nebrasca
 62
0
100
AcDbFace
 10
44
 20
80
 30
2256
 11
44
 21
80
 31
18
 12
634
 22
80
 32
18
 13
634
 23
80
 33
2256
 70
0
  0
3DFACE
  5
23C
100
AcDbEntity
  8
Melamina 18 Nebrasca
 62
0
100
AcDbFace
 10
634
 20
62
 30
2256
 11
44
 21
62
 31
2256
 12
44
 22
80
 32
2256
 13
634
 23
80
 33
2256
 70
0
  0
3DFACE
  5
23D
100
AcDbEntity
  8
Melamina 18 Nebrasca
 62
0
100
AcDbFace
 10
634
 20
62
 30
18
 11
634
 21
80
 31
18
 12
634
 22
80
 32
2256
 13
634
 23
62
 33
2256
 70
0
  0
3DFACE
  5
23E
100
AcDbEntity
  8
Melamina 18 Nebrasca
 62
0
100
AcDbFace
 10
44
 20
80
 30
18
 11
44
 21
62
 31
18
 12
634
 22
62
 32
18
 13
634
 23
80
 33
18
 70
0
  0
3DFACE
  5
23F
100
AcDbEntity
  8
Melamina 18 Nebrasca
 62
0
100
AcDbFace
 10
44
 20
80
 30
2256
 11
44
 21
62
 31
2256
 12
44
 22
62
 32
18
 13
44
 23
80
 33
18
 70
0
  0
ENDBLK
  5
240
100
AcDbEntity
  8
Melamina 18 Nebrasca
100
AcDbBlockEnd
  0
BLOCK
  5
241
100
AcDbEntity
  8
0
100
AcDbBlockBegin
  2
ProyectoMuebleNiñas.Suelo 1
 70
     0
 10
-2000
 20
-2500
 30
0
  0
3DFACE
  5
242
100
AcDbEntity
  8
0
 62
0
100
AcDbFace
 10
-2000
 20
-2500
 30
0
 11
1000
 21
-2500
 31
0
 12
1000
 22
500
 32
0
 13
-2000
 23
500
 33
0
 70
0
  0
3DFACE
  5
243
100
AcDbEntity
  8
0
 62
0
100
AcDbFace
 10
-2000
 20
-2500
 30
-100
 11
1000
 21
-2500
 31
-100
 12
1000
 22
500
 32
-100
 13
-2000
 23
500
 33
-100
 70
0
  0
3DFACE
  5
244
100
AcDbEntity
  8
0
 62
0
100
AcDbFace
 10
-2000
 20
-2500
 30
-100
 11
-2000
 21
-2500
 31
0
 12
1000
 22
-2500
 32
0
 13
1000
 23
-2500
 33
-100
 70
0
  0
3DFACE
  5
245
100
AcDbEntity
  8
0
 62
0
100
AcDbFace
 10
1000
 20
-2500
 30
-100
 11
1000
 21
-2500
 31
0
 12
1000
 22
500
 32
0
 13
1000
 23
500
 33
-100
 70
0
  0
3DFACE
  5
246
100
AcDbEntity
  8
0
 62
0
100
AcDbFace
 10
1000
 20
500
 30
-100
 11
1000
 21
500
 31
0
 12
-2000
 22
500
 32
0
 13
-2000
 23
500
 33
-100
 70
0
  0
3DFACE
  5
247
100
AcDbEntity
  8
0
 62
0
100
AcDbFace
 10
-2000
 20
500
 30
-100
 11
-2000
 21
500
 31
0
 12
-2000
 22
-2500
 32
0
 13
-2000
 23
-2500
 33
-100
 70
0
  0
ENDBLK
  5
248
100
AcDbEntity
  8
0
100
AcDbBlockEnd
  0
ENDSEC
  0
SECTION
  2
ENTITIES
  0
INSERT
  5
249
100
AcDbEntity
  8
0
100
AcDbBlockReference
  2
ProyectoMuebleNiñas.EsquineroPlacard
 10
-175
 20
-400
 30
0
210
0
220
0
230
1
  0
INSERT
  5
24A
100
AcDbEntity
  8
0
100
AcDbBlockReference
  2
ProyectoMuebleNiñas.LatDerPlacard
 10
432
 20
-400
 30
0
 50
-90
210
0
220
0
230
1
  0
INSERT
  5
24B
100
AcDbEntity
  8
0
100
AcDbBlockReference
  2
ProyectoMuebleNiñas.LatIzqPlacard
 10
-800
 20
-50
 30
0
210
0
220
0
230
1
  0
INSERT
  5
24C
100
AcDbEntity
  8
0
100
AcDbBlockReference
  2
ProyectoMuebleNiñas.PuertasPlacard[1]
 10
-800
 20
-50
 30
0
210
0
220
0
230
1
  0
INSERT
  5
24D
100
AcDbEntity
  8
0
100
AcDbBlockReference
  2
ProyectoMuebleNiñas.Suelo 1
 10
-2000
 20
-2500
 30
0
210
0
220
0
230
1
  0
ENDSEC
  0
SECTION
  2
OBJECTS
  0
DICTIONARY
  5
24E
100
AcDbDictionary
  3
ACAD_GROUP
350
24F
  3
ACAD_MLINESTYLE
350
250
  0
DICTIONARY
  5
24F
100
AcDbDictionary
  0
DICTIONARY
  5
250
100
AcDbDictionary
  0
ENDSEC
  0
EOF
